<?xml version="1.0" encoding="UTF-8" standalone="no"?>
<svg
   viewBox="0 0 90 90"
   version="1.1"
   id="svg3"
   sodipodi:docname="arrows.svg"
   width="90"
   height="90"
   inkscape:version="1.4.2 (f4327f4, 2025-05-13)"
   xmlns:inkscape="http://www.inkscape.org/namespaces/inkscape"
   xmlns:sodipodi="http://sodipodi.sourceforge.net/DTD/sodipodi-0.dtd"
   xmlns="http://www.w3.org/2000/svg"
   xmlns:svg="http://www.w3.org/2000/svg">
  <sodipodi:namedview
     id="namedview3"
     pagecolor="#ffffff"
     bordercolor="#000000"
     borderopacity="0.25"
     inkscape:showpageshadow="2"
     inkscape:pageopacity="0.0"
     inkscape:pagecheckerboard="0"
     inkscape:deskcolor="#d1d1d1"
     inkscape:zoom="3.4247788"
     inkscape:cx="112.85401"
     inkscape:cy="66.281654"
     inkscape:window-width="1920"
     inkscape:window-height="976"
     inkscape:window-x="1016"
     inkscape:window-y="-8"
     inkscape:window-maximized="1"
     inkscape:current-layer="svg3" />
  <defs
     id="defs1">
    <style
       id="style1">
            .cls-2{fill:#fff;}
        </style>
  </defs>
  <g
     id="g3"
     transform="matrix(0.60609973,0,0,0.60609973,-127.15391,-100.0061)">
    <g
       id="g2">
      <path
         class="cls-2"
         d="m 237.87,198.36 c 26.87,-30.31 75.42,-27.14 97.52,6.96 4.79,7.39 7.58,15.59 9.13,24.2 l 10.87,0.08 c 1.79,0.68 2.13,2.12 0.92,3.57 -4.6,5.52 -11.18,10.45 -15.96,15.95 -0.64,0.61 -1.59,0.72 -2.35,0.28 l -16.84,-16.92 c -0.47,-1.21 0.1,-2.31 1.29,-2.8 1.47,-0.61 6.88,0.27 8.87,-0.09 0.32,-0.06 0.46,0.08 0.55,-0.37 0.13,-0.62 -1.84,-6.93 -2.23,-7.96 -15.72,-42.43 -76.04,-41.3 -91.74,0.46 -0.29,0.39 -0.6,0.71 -1.07,0.89 -1.33,0.54 -7.83,-2.45 -9.6,-2.77 -1.79,-1.27 -0.19,-3.96 0.47,-5.54 2.41,-5.7 6.06,-11.3 10.17,-15.94 z"
         id="path1" />
      <path
         class="cls-2"
         d="m 211.19,245.27 16.41,-16.5 c 0.64,-0.61 1.59,-0.72 2.35,-0.28 l 16.84,16.92 c 0.47,1.21 -0.1,2.31 -1.29,2.8 -1.47,0.61 -6.88,-0.27 -8.87,0.09 -0.32,0.06 -0.46,-0.08 -0.55,0.37 -0.06,0.27 0.91,3.92 1.08,4.53 12.55,42.95 70.22,46.99 90.88,7.51 1.14,-2.18 1.51,-5.94 4.52,-5.37 1.01,0.19 7.26,2.2 7.97,2.63 2.07,1.26 0.42,3.95 -0.29,5.63 -7.65,17.93 -24.34,31.17 -43.21,35.35 -34.29,7.59 -68.46,-15.44 -73.5,-50.45 l -11.16,-0.25 c -1.25,-0.48 -1.84,-1.79 -1.19,-2.98 z"
         id="path2" />
    </g>
  </g>
</svg>
