<?xml version="1.0" encoding="UTF-8" standalone="no"?>
<svg
   id="_Слой_1"
   data-name="Слой 1"
   viewBox="0 0 50 50"
   version="1.1"
   sodipodi:docname="help.svg"
   width="50"
   height="50"
   inkscape:version="1.4.2 (f4327f4, 2025-05-13)"
   xmlns:inkscape="http://www.inkscape.org/namespaces/inkscape"
   xmlns:sodipodi="http://sodipodi.sourceforge.net/DTD/sodipodi-0.dtd"
   xmlns="http://www.w3.org/2000/svg"
   xmlns:svg="http://www.w3.org/2000/svg">
  <sodipodi:namedview
     id="namedview1"
     pagecolor="#ffffff"
     bordercolor="#000000"
     borderopacity="0.25"
     inkscape:showpageshadow="2"
     inkscape:pageopacity="0.0"
     inkscape:pagecheckerboard="0"
     inkscape:deskcolor="#d1d1d1"
     inkscape:zoom="3.4247788"
     inkscape:cx="112.85401"
     inkscape:cy="66.281654"
     inkscape:window-width="1920"
     inkscape:window-height="976"
     inkscape:window-x="1016"
     inkscape:window-y="-8"
     inkscape:window-maximized="1"
     inkscape:current-layer="_Слой_1" />
  <defs
     id="defs1">
    <style
       id="style1">
            .cls-2 {
            fill: #fff;
            }
        </style>
  </defs>
  <g
     id="g1"
     transform="matrix(0.9428144,0,0,0.9428144,-246.12316,-199.7828)">
    <path
       class="cls-2"
       d="m 281.76,243.11 c 0.26,-1.59 0.7,-2.98 1.32,-4.17 0.62,-1.19 1.33,-2.23 2.14,-3.13 0.81,-0.9 1.58,-1.77 2.31,-2.6 0.74,-0.83 1.35,-1.65 1.85,-2.46 0.5,-0.81 0.75,-1.71 0.75,-2.71 0,-0.62 -0.1,-1.15 -0.28,-1.6 -0.19,-0.45 -0.44,-0.83 -0.75,-1.14 -0.31,-0.31 -0.67,-0.53 -1.07,-0.68 -0.4,-0.14 -0.82,-0.21 -1.25,-0.21 -0.76,0 -1.41,0.17 -1.96,0.5 -0.55,0.33 -1,0.77 -1.35,1.32 -0.36,0.55 -0.65,1.16 -0.89,1.85 -0.24,0.69 -0.4,1.41 -0.5,2.17 h -11.04 v -2.49 c 0.14,-1.99 0.63,-3.86 1.46,-5.59 0.83,-1.73 1.96,-3.25 3.38,-4.56 1.42,-1.31 3.13,-2.34 5.13,-3.1 1.99,-0.76 4.27,-1.14 6.84,-1.14 2.09,0 4.02,0.32 5.81,0.96 1.79,0.64 3.34,1.54 4.67,2.71 1.33,1.16 2.37,2.55 3.13,4.17 0.76,1.62 1.14,3.4 1.14,5.34 0,2.09 -0.29,3.85 -0.85,5.27 -0.57,1.42 -1.27,2.68 -2.1,3.78 -0.83,1.09 -1.75,2.07 -2.74,2.92 -1,0.85 -1.92,1.76 -2.78,2.71 -0.85,0.95 -1.57,2.02 -2.14,3.21 -0.57,1.19 -0.88,2.64 -0.93,4.35 h -9.19 c -0.33,-2.18 -0.37,-4.07 -0.11,-5.66 z m 0.25,19.59 c -1.04,-1.16 -1.57,-2.58 -1.57,-4.24 0,-1.66 0.51,-3.16 1.53,-4.35 1.02,-1.19 2.55,-1.78 4.6,-1.78 2.05,0 3.61,0.59 4.7,1.78 1.09,1.19 1.64,2.64 1.64,4.35 0,0.81 -0.14,1.58 -0.43,2.31 -0.29,0.74 -0.7,1.38 -1.25,1.92 -0.55,0.55 -1.21,0.97 -1.99,1.28 -0.78,0.31 -1.67,0.46 -2.67,0.46 -1.99,0 -3.52,-0.58 -4.56,-1.75 z"
       id="path1" />
  </g>
</svg>
