<?xml version="1.0" encoding="UTF-8" standalone="no"?>
<svg
   id="_Слой_1"
   data-name="Слой 1"
   viewBox="0 0 50 50"
   version="1.1"
   sodipodi:docname="money.svg"
   width="50"
   height="50"
   inkscape:version="1.4.2 (f4327f4, 2025-05-13)"
   xmlns:inkscape="http://www.inkscape.org/namespaces/inkscape"
   xmlns:sodipodi="http://sodipodi.sourceforge.net/DTD/sodipodi-0.dtd"
   xmlns="http://www.w3.org/2000/svg"
   xmlns:svg="http://www.w3.org/2000/svg">
  <sodipodi:namedview
     id="namedview1"
     pagecolor="#ffffff"
     bordercolor="#000000"
     borderopacity="0.25"
     inkscape:showpageshadow="2"
     inkscape:pageopacity="0.0"
     inkscape:pagecheckerboard="0"
     inkscape:deskcolor="#d1d1d1"
     inkscape:zoom="3.4247788"
     inkscape:cx="112.85401"
     inkscape:cy="66.281654"
     inkscape:window-width="1920"
     inkscape:window-height="976"
     inkscape:window-x="1016"
     inkscape:window-y="-8"
     inkscape:window-maximized="1"
     inkscape:current-layer="_Слой_1" />
  <defs
     id="defs1">
    <style
       id="style1">
            .cls-2 {
                fill: #fff;
            }
        </style>
  </defs>
  <g
     class="cls-6"
     id="g1"
     transform="matrix(0.49125705,0,0,0.49125705,-114.50167,-91.67526)">
    <path
       class="cls-2"
       d="m 265.29,288.12 c -6.9,-0.36 -20.49,-2.4 -21.02,-11.27 l -0.03,-28.5 c -1.08,-1.29 -6.42,-3.31 -6.95,-4.62 -1.37,-3.39 4.54,-3.86 6.41,-5.25 l -5.85,-3.4 c -1.08,-0.78 -1.21,-2.34 -0.23,-3.25 0.98,-0.91 4.17,-1.7 5.51,-2.4 0.21,-0.11 0.48,0 0.38,-0.39 -0.1,-0.39 -5.6,-2.71 -6.27,-4.15 -1.49,-3.22 4.66,-3.68 6.26,-5.11 0,-0.34 -5.2,-2.87 -5.88,-3.56 -1.3,-1.34 -0.5,-3.18 1.12,-3.7 l 56.73,-23.1 1.38,0.36 c 8.08,5.13 17.47,9.1 25.45,14.26 1.35,0.87 2.6,2.38 1.01,3.78 -0.74,0.65 -5.96,2.39 -5.96,2.71 1.59,1.6 7.92,2.95 6.4,6.02 -0.56,1.12 -3.94,2.15 -5.18,2.72 l -1.22,0.71 c 1.63,1.28 8.62,3.33 6.18,6.31 -0.68,0.83 -6.18,2.6 -6.17,2.94 1.49,1.38 8.98,3.66 5.91,6.58 l -11.89,5.27 c 3.8,0.3 7.71,0.97 11.28,2.31 3.2,1.2 7.54,3.69 7.98,7.44 -0.52,8.64 0.77,18.25 0.03,26.78 -0.69,7.99 -14.63,10.16 -20.83,10.5 h -5.59 l -5.05,-0.63 c -4.1,-0.74 -8.11,-1.95 -11.64,-4.19 -1.31,0.57 -2.49,1.4 -3.81,1.97 -2.54,1.09 -5.28,1.68 -8,2.22 l -5.05,0.63 c -1.79,-0.07 -3.61,0.09 -5.4,0 z m 51.67,-81.92 -0.32,-0.55 -21.03,-11.76 -15.48,6.14 19.6,13.25 17.22,-7.09 z m -19.5,35.64 -0.15,-25.14 -21.75,-14.51 -7.56,2.86 c -0.09,0.12 0.39,0.45 0.51,0.54 6.04,4.72 14.16,8.55 19.99,13.37 0.72,0.6 1.01,0.78 1.1,1.79 0.51,5.61 -0.76,12.75 -0.02,18.14 0.09,0.67 0.83,1.56 1.07,2.4 0.26,0.92 0.37,1.73 0.29,2.7 l 6.53,-2.15 z m -53.58,-26.96 0.52,0.54 21.17,12.36 17.45,-7.41 -19.77,-13.21 -19.36,7.71 z m 57.85,2.12 v 4.82 l 15.43,-6.46 -4.88,-2.75 -10.54,4.39 z m 0,9.54 v 4.72 l 15.23,-6.46 c 0,-0.39 -1.43,-1.07 -1.8,-1.28 -0.58,-0.34 -2.57,-1.52 -3.07,-1.47 z m -16.2,-2.41 -0.78,0.09 -19.18,8.02 -0.73,-0.06 -16.33,-9.51 c -0.27,-0.14 -0.5,-0.08 -0.78,0 -0.63,0.17 -2.81,1.1 -3.41,1.42 -0.13,0.07 -0.53,0.29 -0.44,0.42 l 14.77,8.62 c 5.66,-1.03 11.37,-0.96 17.05,-0.22 l 9.82,-4.25 v -4.53 z m 16.2,11.56 v 4.82 l 15.42,-6.36 c -1.46,-1.14 -3.26,-1.92 -4.88,-2.85 z m -48.98,-1.34 -4.53,-2.5 -4.34,1.73 4.76,3.04 c 1.11,-0.62 2.86,-1.18 3.86,-1.84 0.18,-0.12 0.35,0.02 0.25,-0.43 z m 32.59,-0.97 -2.89,1.35 2.89,1.16 v -2.5 z m -35.99,11.31 c 4.67,5.23 20.55,5.28 26.93,4.02 4.2,-0.83 15.83,-4.43 7.33,-9.07 -7.55,-4.13 -23.17,-4.06 -30.93,-0.45 -2.11,0.98 -5.64,2.91 -3.33,5.5 z m 55.61,0.31 c -4.81,0.2 -9.68,1.4 -13.94,3.6 l -0.06,5.85 c 0.28,0.81 6.74,2.69 7.87,2.93 6.93,1.47 20.03,1 25.9,-3.42 3.02,-2.27 1.65,-4.03 -1.09,-5.59 -4.88,-2.77 -13.13,-3.62 -18.68,-3.38 z m -18.27,4.19 c -7.84,4.53 -18.21,5.2 -27.03,3.8 -3.89,-0.62 -7.75,-1.79 -11.14,-3.8 v 2.79 c 0,0.86 2.33,2.48 3.08,2.89 7.78,4.29 24.61,4.35 32.3,-0.09 0.63,-0.37 2.79,-1.91 2.79,-2.61 v -2.99 z m 0,8.86 c -8.73,4.48 -19.61,5.24 -29.15,3.22 -3.08,-0.65 -6.29,-1.69 -8.93,-3.41 -0.55,2.9 0.34,4.04 2.67,5.43 7.62,4.54 24.58,4.5 32.34,0.26 2.41,-1.31 3.5,-2.58 3.08,-5.5 z m 39.71,0 c -7.71,3.98 -17.35,5.02 -25.9,3.83 -3.29,-0.46 -6.43,-1.47 -9.57,-2.48 v 3.85 c 3.01,1.35 6.13,2.48 9.41,3.03 6.37,1.06 19.13,0.46 24.4,-3.64 0.33,-0.26 1.67,-1.49 1.67,-1.8 v -2.79 z m -39.71,8.48 c -2.79,1.65 -5.88,2.72 -9.06,3.38 -6.61,1.37 -14.26,1.34 -20.83,-0.2 -2.87,-0.67 -5.66,-1.69 -8.19,-3.18 -0.98,3.73 2.14,5.35 5.06,6.51 7.75,3.06 20.93,3.12 28.58,-0.25 1.01,-0.45 4.44,-2.25 4.44,-3.46 v -2.79 z m 39.71,0.2 c -9.05,4.59 -20.75,5.42 -30.54,2.88 -1.67,-0.43 -3.26,-1.1 -4.93,-1.53 v 3.85 c 3.24,1.31 6.46,2.53 9.96,3.06 6.37,0.96 18.98,0.27 24.16,-3.94 0.28,-0.23 1.37,-1.26 1.37,-1.53 v -2.79 z m -39.71,8.48 c -1.29,0.6 -2.53,1.32 -3.86,1.83 -9.99,3.83 -24.59,3.38 -34.03,-1.82 -0.39,-0.06 -0.25,0.01 -0.28,0.28 -0.43,3.27 1.43,4.5 4.11,5.72 7.68,3.51 21.25,3.6 29.05,0.45 1.01,-0.41 5.02,-2.54 5.02,-3.66 v -2.79 z M 326.4,278 c 0.16,-0.77 -0.11,-1.96 0,-2.79 -10.64,5.55 -24.36,5.56 -35.48,1.35 l -0.55,3.35 c 0.11,0.55 2.6,1.58 3.19,1.81 7.63,2.95 20.07,3 27.67,0 1.35,-0.53 4.85,-2.22 5.16,-3.71 z"
       id="path1" />
  </g>
</svg>
