<?xml version="1.0" encoding="UTF-8" standalone="no"?>
<svg
   id="_Слой_1"
   data-name="Слой 1"
   viewBox="0 0 50 50"
   version="1.1"
   sodipodi:docname="wave.svg"
   width="50"
   height="50"
   inkscape:version="1.4.2 (f4327f4, 2025-05-13)"
   xmlns:inkscape="http://www.inkscape.org/namespaces/inkscape"
   xmlns:sodipodi="http://sodipodi.sourceforge.net/DTD/sodipodi-0.dtd"
   xmlns="http://www.w3.org/2000/svg"
   xmlns:svg="http://www.w3.org/2000/svg">
  <sodipodi:namedview
     id="namedview3"
     pagecolor="#ffffff"
     bordercolor="#000000"
     borderopacity="0.25"
     inkscape:showpageshadow="2"
     inkscape:pageopacity="0.0"
     inkscape:pagecheckerboard="0"
     inkscape:deskcolor="#d1d1d1"
     inkscape:zoom="6.8495575"
     inkscape:cx="26.206072"
     inkscape:cy="42.338501"
     inkscape:window-width="1920"
     inkscape:window-height="976"
     inkscape:window-x="1016"
     inkscape:window-y="-8"
     inkscape:window-maximized="1"
     inkscape:current-layer="_Слой_1" />
  <defs
     id="defs1">
    <style
       id="style1">
            .cls-2 {
            fill: #fff;
            }
        </style>
  </defs>
  <g
     id="g3"
     transform="matrix(1.0212422,0,0,1.0212422,-278.96756,-218.58191)">
    <path
       class="cls-2"
       d="m 310.08,216.02 -1.64,1.69 0.86,0.88 c 2.33,2.43 5.02,7 6.21,10.62 2,5.93 1.9,13.47 -0.19,19.07 -1.33,3.57 -3.48,7.19 -5.64,9.57 l -1.21,1.31 1.64,1.67 1.62,1.64 0.81,-0.79 c 2.33,-2.21 5.43,-7.12 6.81,-10.76 1.71,-4.48 2.33,-7.78 2.33,-12.5 0,-3.64 -0.31,-5.95 -1.26,-9.28 -1.4,-4.95 -4.24,-10.09 -7.31,-13.35 l -1.36,-1.43 -1.67,1.67 z"
       id="path1" />
    <path
       class="cls-2"
       d="m 303.2,222.92 -1.64,1.67 1.02,1.14 c 3.38,3.83 5.19,9.74 4.55,14.81 -0.55,4.36 -2.09,7.86 -4.76,10.81 l -0.81,0.9 1.62,1.64 1.64,1.67 0.57,-0.55 c 2.07,-1.9 4.83,-6.78 5.76,-10.19 1.05,-3.88 1.05,-8.86 -0.02,-12.83 -0.88,-3.36 -3.67,-8.26 -5.74,-10.16 l -0.57,-0.55 z"
       id="path2" />
    <path
       class="cls-2"
       d="m 296.29,229.82 -1.62,1.62 0.83,1.09 c 2.71,3.55 2.62,8.69 -0.21,12.04 l -0.64,0.79 1.69,1.69 1.71,1.71 0.69,-0.83 c 2.48,-2.95 3.83,-7.21 3.45,-10.83 -0.24,-2.17 -1.17,-4.86 -2.21,-6.45 -0.93,-1.38 -1.81,-2.48 -1.98,-2.48 -0.05,0 -0.81,0.74 -1.71,1.64 z"
       id="path3" />
  </g>
</svg>
