<?xml version="1.0" encoding="utf-8"?>
<!-- Generator: Adobe Illustrator 28.0.0, SVG Export Plug-In . SVG Version: 6.00 Build 0)  -->
<svg version="1.1" id="Слой_1" xmlns="http://www.w3.org/2000/svg" xmlns:xlink="http://www.w3.org/1999/xlink" x="0px" y="0px"
	 viewBox="0 0 137.01 85.78" style="enable-background:new 0 0 137.01 85.78;" xml:space="preserve">
<style type="text/css">
	.st0{opacity:0.5;}
	.st1{fill:#FFFFFF;}
	.st2{opacity:0.5;fill:#FFFFFF;}
	.st3{fill:url(#SVGID_00000107558746572360879360000003751261218539629225_);}
	.st4{fill:#C77618;}
	.st5{fill:url(#SVGID_00000047770348632696005080000015054008405841501313_);}
	.st6{fill:url(#SVGID_00000022538078758099568030000004950421712397347993_);}
	.st7{fill:url(#SVGID_00000104698732162237242970000006710954599196049299_);}
	.st8{opacity:0.5;fill:#00D405;}
	.st9{fill:url(#SVGID_00000181804106866259039280000003687771289872386972_);}
	.st10{fill:url(#SVGID_00000059299154052885930940000001447038577530214313_);}
	.st11{fill:url(#SVGID_00000150822321334457160480000018027360038516730801_);}
	.st12{fill:#2E4593;}
	.st13{fill:#FCF5FF;}
	.st14{fill:#F42525;}
	.st15{opacity:0.61;}
	.st16{opacity:0.26;}
	.st17{opacity:0.45;}
	.st18{fill:#FFFFFF;stroke:#000000;stroke-miterlimit:10;}
	.st19{fill:#28292B;}
	.st20{fill:#FFF915;}
	.st21{fill:#DD3131;}
	.st22{fill:#E53030;}
	.st23{fill:#25BBEF;}
	.st24{fill:#E83434;}
	.st25{fill:#9E1C29;}
	.st26{fill:#000101;}
	.st27{fill:#C4B130;}
	.st28{fill:#408F6E;}
	.st29{fill:#3D5BA9;}
	.st30{fill:#CBCACA;}
	.st31{fill:#C0B531;}
	.st32{fill:#CB414D;}
	.st33{fill:#DE6BA9;}
	.st34{fill:#F6D491;}
	.st35{fill:#4653A4;}
	.st36{fill:#FF9A15;}
	.st37{fill:#37AA41;}
	.st38{fill:#2D3A8E;}
	.st39{fill:#DB2E2E;}
	.st40{fill:#17B3DD;}
	.st41{fill:url(#SVGID_00000054961741929201958490000011555824559512181940_);}
	.st42{fill:url(#SVGID_00000117643742532260960930000013669206763561119679_);}
	.st43{fill:url(#SVGID_00000132082433318173742850000015573652825771835312_);}
	.st44{fill:url(#SVGID_00000156582439433451284130000005470507333857614005_);}
	.st45{fill:url(#SVGID_00000178196178337894686050000016055358932528946563_);}
	.st46{fill:url(#SVGID_00000041284206195666094710000001914575436527071398_);}
	.st47{fill:url(#SVGID_00000058591035124565798050000007459341225228591774_);}
	.st48{fill:url(#SVGID_00000105393520158867675350000004531096125764844728_);}
	.st49{fill:url(#SVGID_00000168823939088444990120000011451429376438628488_);}
	.st50{fill:url(#SVGID_00000173159199970311825080000014635866563956265361_);}
	.st51{fill:url(#SVGID_00000008847554995463219350000010813331780692249528_);}
	.st52{fill:url(#SVGID_00000049206698096208048620000017121708072076904337_);}
	.st53{fill:url(#SVGID_00000075883796690758977310000004011193403708124549_);}
	.st54{fill:url(#SVGID_00000161604579068407132630000014003727925679404962_);}
	.st55{fill:url(#SVGID_00000016076733779050373930000003476787805598570681_);}
	.st56{fill:url(#SVGID_00000071532757725305480520000005858381446857433535_);}
	.st57{fill:url(#SVGID_00000067202329679919102570000012591951361000553132_);}
	.st58{fill:url(#SVGID_00000077304165110784761730000017630933298639242917_);}
	.st59{fill:url(#SVGID_00000073699337091866522470000012074493763584430014_);}
	.st60{fill:url(#SVGID_00000094618279478845234130000016099783395497685173_);}
	.st61{fill:url(#SVGID_00000116226406613748584850000011323918458434716336_);}
	.st62{fill:url(#SVGID_00000056391812534830759470000011939818859271214489_);}
	.st63{fill:url(#SVGID_00000112613371812248557200000013887214463161283504_);}
	.st64{fill:#FFEF00;}
	.st65{fill:url(#SVGID_00000180341072733480612200000007228559164608142476_);}
	.st66{fill:url(#SVGID_00000025427545807393250300000009146595031761118886_);}
	.st67{fill:url(#SVGID_00000060708629663326978520000013345575027186269056_);}
	.st68{fill:url(#SVGID_00000098213045833249126680000006308785323800438188_);}
	.st69{fill:url(#SVGID_00000049186956626537104260000002638668821297131157_);}
	.st70{fill:url(#SVGID_00000022535342330566237960000006128920976869634176_);}
	.st71{fill:url(#SVGID_00000036941881168827502280000003270151807630541735_);}
	.st72{fill:url(#SVGID_00000130648279556640563590000001764985584828003748_);}
	.st73{fill:url(#SVGID_00000109010068344945374910000000758993142347352735_);}
	.st74{fill:url(#SVGID_00000130613482320596235710000000527779845321662357_);}
	.st75{fill:url(#SVGID_00000057146940300901462840000018203117449722683836_);}
	.st76{fill:url(#SVGID_00000160174185677599730550000003459525440290090661_);}
	.st77{fill:url(#SVGID_00000053529626397598853080000008877683100099427241_);}
	.st78{fill:url(#SVGID_00000155105121060414297360000002923170829764416433_);}
	.st79{fill:url(#SVGID_00000156571128136748769290000002618805788546078102_);}
	.st80{fill:url(#SVGID_00000182510114159209610350000004764615448879878064_);}
	.st81{fill:url(#SVGID_00000003823320034512538340000003115765700814506153_);}
	.st82{fill:url(#SVGID_00000052802996011004721010000005320139858690215557_);}
	.st83{fill:url(#SVGID_00000024720991739314415370000012793565101000375992_);}
	.st84{fill:url(#SVGID_00000096046788031218159920000016654410345318120119_);}
	.st85{fill:url(#SVGID_00000111152961394081792260000009607726403386353084_);}
	.st86{fill:url(#SVGID_00000019668089521704175040000016362316076253068223_);}
	.st87{fill:url(#SVGID_00000115487287147099603090000015493965872772732578_);}
	.st88{fill:url(#SVGID_00000152225400769488364260000018226688545399481495_);}
	.st89{fill:url(#SVGID_00000099624320211074129610000013625097685016154782_);}
	.st90{fill:url(#SVGID_00000168821075476244953410000013932588616886051201_);}
	.st91{fill:url(#SVGID_00000098908276144267712280000006833792316264345501_);}
	.st92{fill:url(#SVGID_00000151532061629454584160000003719292764377072041_);}
	.st93{fill:url(#SVGID_00000178925067127491360000000010642777715136900252_);}
	.st94{fill:url(#SVGID_00000119823581427492672920000012014217266382430349_);}
	.st95{fill:url(#SVGID_00000135670931262309538690000007274312425824027065_);}
	.st96{fill:url(#SVGID_00000044141232982544762260000010080375665248448678_);}
	.st97{fill:url(#SVGID_00000111183639913912538270000016585473861450299281_);}
	.st98{fill:url(#SVGID_00000129203697678764640760000014338551859360797871_);}
	.st99{fill:url(#SVGID_00000126312554039393938300000004749457252786492845_);}
	.st100{fill:url(#SVGID_00000124142641897855828420000007236089815135908238_);}
	.st101{fill:url(#SVGID_00000146478501387902506210000007868794452723134364_);}
	.st102{fill:url(#SVGID_00000119827061002327293170000012038867512411481984_);}
	.st103{fill:url(#SVGID_00000073685859902610740610000007676385969262520995_);}
	.st104{fill:url(#SVGID_00000040554325301518253410000002205219743455431097_);}
	.st105{fill:url(#SVGID_00000042727249869444891580000011451556832464180411_);}
	.st106{fill:url(#SVGID_00000003788147836125819130000014873058917840811154_);}
	.st107{fill:url(#SVGID_00000120519730350437755790000004024222048527815593_);}
	.st108{fill:url(#SVGID_00000092432406354455485390000012672627855438997388_);}
	.st109{fill:url(#SVGID_00000149375386329646877850000009702908674153898917_);}
	.st110{fill:url(#SVGID_00000005240759303721139610000001879534835893653688_);}
	.st111{fill:url(#SVGID_00000016766332747482731380000008731818638291805864_);}
	.st112{fill:url(#SVGID_00000125602852770505081120000011212262669208895156_);}
	.st113{fill:url(#SVGID_00000013184334063743650800000014924016935700716709_);}
	.st114{fill:url(#SVGID_00000057838002629211800740000013519174288550164646_);}
	.st115{fill:url(#SVGID_00000050648498553412762750000016098330670126040753_);}
	.st116{fill:url(#SVGID_00000132071743456610822850000004106256840034300573_);}
	.st117{fill:url(#SVGID_00000109720098522537974770000007207650684755427492_);}
	.st118{fill:url(#SVGID_00000008120356398891863990000016617684153649220259_);}
	.st119{fill:url(#SVGID_00000175300068112576942840000007257390001254553005_);}
	.st120{fill:url(#SVGID_00000144307539540423662000000000187128703669194381_);}
	.st121{fill:url(#SVGID_00000079448207316731526300000011104818522956789941_);}
	.st122{fill:url(#SVGID_00000080201839745403172160000006099718244767997570_);}
	.st123{fill:url(#SVGID_00000160166755057780932110000001293223269427913877_);}
	.st124{fill:url(#SVGID_00000005229660224818381970000005772254445558361223_);}
	.st125{fill:url(#SVGID_00000054229799914630981040000013155362077605561763_);}
	.st126{fill:url(#SVGID_00000070838955203441446770000001214567805463031711_);}
	.st127{fill:url(#SVGID_00000038406942651879988530000008102177046357668251_);}
	.st128{fill:url(#SVGID_00000119809939977202359330000017409435996035413154_);}
	.st129{fill:url(#SVGID_00000091698335743226503230000012024825762780525467_);}
	.st130{fill:url(#SVGID_00000045603092245521575810000004777182009939051908_);}
	.st131{fill:url(#SVGID_00000036956057072690394100000007819586545134291622_);}
	.st132{fill:url(#SVGID_00000161617769739971494010000015546649712760107159_);}
	.st133{fill:url(#SVGID_00000161630165916019680420000011623262112178304444_);}
	.st134{fill:url(#SVGID_00000003804481703987680490000017100593969768045952_);}
	.st135{fill:url(#SVGID_00000156554356571138059330000004028270718581650049_);}
	.st136{fill:url(#SVGID_00000007390768240104970830000008907418536599004804_);}
	.st137{fill:url(#SVGID_00000016063815239904288290000014485684340442337154_);}
	.st138{fill:url(#SVGID_00000108302722102802354730000000622668794776233104_);}
	.st139{fill:url(#SVGID_00000061453854873968923330000012816964924960473022_);}
	.st140{fill:url(#SVGID_00000168117981652738190090000001155797095695672195_);}
	.st141{fill:url(#SVGID_00000053514880292073941050000003963252179514798763_);}
	.st142{fill:url(#SVGID_00000021111292605327327090000009283061001315689861_);}
	.st143{fill:url(#SVGID_00000058559287757402389260000001118560134075594119_);}
	.st144{fill:url(#SVGID_00000098919901033825327740000008139853839240005271_);}
	.st145{fill:url(#SVGID_00000019656891320763287300000015896100357217895358_);}
	.st146{fill:url(#SVGID_00000140722487240449335970000000905348862169742517_);}
	.st147{fill:url(#SVGID_00000141426492075607539810000005022796716295455911_);}
	.st148{fill:url(#SVGID_00000071544753127584970180000018179546451742943659_);}
	.st149{fill:url(#SVGID_00000079458387496807683370000018104194284177154449_);}
	.st150{fill:url(#SVGID_00000153669674474764325430000015377126786314917774_);}
	.st151{fill:url(#SVGID_00000088828200177344088580000000261373001054246805_);}
	.st152{fill:url(#SVGID_00000103246300554908315920000014793326017325402041_);}
	.st153{fill:url(#SVGID_00000008842907211861531930000016300571994298529166_);}
	.st154{fill:url(#SVGID_00000096056106700640068110000001643167973673524366_);}
	.st155{fill:url(#SVGID_00000137851652144951989340000016627560314891598475_);}
	.st156{fill:url(#SVGID_00000105417022824758674650000011442462296908166287_);}
	.st157{fill:url(#SVGID_00000127757400072134464940000005033629139395685006_);}
	.st158{fill:url(#SVGID_00000156559694667252415760000000982798270889865369_);}
	.st159{fill:url(#SVGID_00000174589342009927534040000003560708799455982762_);}
	.st160{fill:url(#SVGID_00000052805396329587317570000000913810478552380563_);}
	.st161{fill:url(#SVGID_00000121981442422407123420000010090323427414066610_);}
	.st162{fill:url(#SVGID_00000028285303792947123350000009028139485868847511_);}
	.st163{fill:url(#SVGID_00000119091301721404197730000006064515530137348508_);}
	.st164{fill:url(#SVGID_00000000920258282315589360000016379869272048712103_);}
	.st165{fill:url(#SVGID_00000167356039080067742180000014634668507753694105_);}
	.st166{fill:url(#SVGID_00000110437652670447201200000002934237032136091559_);}
	.st167{fill:url(#SVGID_00000001641434771620972490000014260937000701002418_);}
	.st168{fill:url(#SVGID_00000036209557534412243160000014801422023351149223_);}
	.st169{fill:url(#SVGID_00000081620056832488427910000005728958563404232620_);}
	.st170{fill:url(#SVGID_00000042721989674373881290000015462984671061777592_);}
	.st171{fill:url(#SVGID_00000128480094534823741390000014528539806620836756_);}
	.st172{fill:url(#SVGID_00000156582320369948143740000015436005198593431730_);}
	.st173{fill:url(#SVGID_00000049203204706211770810000016018740915994791055_);}
	.st174{fill:url(#SVGID_00000173849760088341829690000018301655078792626856_);}
	.st175{fill:url(#SVGID_00000138546502685897262670000018346224840483965582_);}
	.st176{fill:url(#SVGID_00000147214257583835856950000000084294575930526130_);}
	.st177{fill:url(#SVGID_00000018216109772681333420000013522115682723331501_);}
	.st178{fill:url(#SVGID_00000150067397476913071070000014283623343935448727_);}
	.st179{fill:url(#SVGID_00000155114195444030052370000015699947277980809106_);}
	.st180{fill:url(#SVGID_00000143585050462173629300000006653031733645545118_);}
	.st181{fill:url(#SVGID_00000109002249796852583470000007298356931286387079_);}
	.st182{fill:url(#SVGID_00000051373823908160656550000012402148979768803988_);}
	.st183{fill:url(#SVGID_00000143596696106139136250000013296659131659807644_);}
	.st184{fill:url(#SVGID_00000120544301811427684150000011849394709195168397_);}
	.st185{fill:url(#SVGID_00000160900546226345666620000007172134992984403375_);}
	.st186{fill:url(#SVGID_00000142875003016845751380000005213975019970927775_);}
	.st187{fill:url(#SVGID_00000181798074066666394370000005296970130592166284_);}
	.st188{fill:url(#SVGID_00000071539523799295970220000018287472608228485043_);}
	.st189{fill:url(#SVGID_00000156552491285021989680000009609634780614397347_);}
	.st190{fill:url(#SVGID_00000138542155249615885900000005924410952629456265_);}
	.st191{fill:url(#SVGID_00000096746943898280243390000017194120900773943954_);}
	.st192{fill:url(#SVGID_00000140015478461225922720000008976237240437275838_);}
	.st193{fill:url(#SVGID_00000113353671905685038720000013020175552882635409_);}
	.st194{fill:url(#SVGID_00000076581521113223025330000012862854636754230960_);}
	.st195{fill:url(#SVGID_00000124133344907948342300000013449725795148728504_);}
	.st196{fill:url(#SVGID_00000119091577031842770170000018399701698786253968_);}
	.st197{fill:url(#SVGID_00000051356157504425302460000016916911301632079744_);}
	.st198{fill:url(#SVGID_00000139283661201814650940000002673050300839303611_);}
	.st199{fill:url(#SVGID_00000023264057287032784330000004762446591915182497_);}
	.st200{fill:url(#SVGID_00000037668533270952561460000008285950398756088726_);}
	.st201{fill:url(#SVGID_00000121281058048909885310000001300741666710718649_);}
	.st202{fill:url(#SVGID_00000093865881468002071840000002142749141707848079_);}
	.st203{fill:url(#SVGID_00000170236277871369034610000017323786532345885318_);}
	.st204{fill:url(#SVGID_00000161614816728329599220000001249721132563691455_);}
	.st205{fill:url(#SVGID_00000127044710578511963380000008018055539629584042_);}
	.st206{fill:url(#SVGID_00000161589471461114630280000014721879665976443821_);}
	.st207{fill:url(#SVGID_00000077292970291759679170000008334549259532491408_);}
	.st208{fill:url(#SVGID_00000057846553875898623780000014637154064980216227_);}
	.st209{fill:url(#SVGID_00000016759778896263150130000005860737545228267395_);}
	.st210{fill:url(#SVGID_00000018236683606711477370000016700709220608235454_);}
	.st211{fill:url(#SVGID_00000062179161266136021250000000053008551667599524_);}
	.st212{fill:url(#SVGID_00000162311316760036317330000003022278969845461167_);}
	.st213{fill:url(#SVGID_00000045592544372492817980000010576588922838255255_);}
	.st214{fill:url(#SVGID_00000118356994038256522580000002747925649603039901_);}
	.st215{fill:url(#SVGID_00000140009479837781549010000000933257935316240819_);}
	.st216{fill:url(#SVGID_00000083047764856509300060000000110346799287719555_);}
	.st217{fill:url(#SVGID_00000088830281634208116230000012904704098162810288_);}
	.st218{fill:url(#SVGID_00000167357139152904893780000016666328438620695484_);}
	.st219{fill:url(#SVGID_00000173152008490433933560000004580798915839551888_);}
	.st220{fill:url(#SVGID_00000141423911562303364420000006946574634299315339_);}
	.st221{fill:url(#SVGID_00000121966294324484957760000001728640404850653101_);}
	.st222{fill:url(#SVGID_00000070800492063947868780000010891848454752107710_);}
	.st223{fill:url(#SVGID_00000179625147714179765060000008206847314699155114_);}
	.st224{fill:url(#SVGID_00000039822602531071432670000002285908103127910291_);}
	.st225{fill:url(#SVGID_00000159445267450904107880000016293106389838407581_);}
	.st226{fill:url(#SVGID_00000145762800244424260280000009053497248009711006_);}
	.st227{fill:url(#SVGID_00000049905427992920859470000012282166277324304061_);}
	.st228{fill:url(#SVGID_00000163065295158257516190000006932305344273387662_);}
	.st229{fill:url(#SVGID_00000166669158739179040020000000895413818466268850_);}
	.st230{fill:url(#SVGID_00000136392669007267676560000010882407739715924366_);}
	.st231{fill:url(#SVGID_00000133489194463589353500000009517690887287300276_);}
	.st232{fill:url(#SVGID_00000000902749108830812580000016614170452822016702_);}
	.st233{fill:url(#SVGID_00000086681464541136464800000014173972166708524173_);}
	.st234{fill:url(#SVGID_00000085968743992629285890000007124686850069322898_);}
	.st235{fill:url(#SVGID_00000018196878890306556440000017844876426619719073_);}
	.st236{fill:url(#SVGID_00000013889122693957813560000009484057603342800002_);}
	.st237{fill:url(#SVGID_00000068661355911006054670000003169904483497067966_);}
	.st238{fill:url(#SVGID_00000129206499938885323600000014242507508114305970_);}
	.st239{fill:#E81944;}
	.st240{fill:#FEFEFE;}
	.st241{fill:#56B34A;}
	.st242{fill:#CEB42B;}
	.st243{fill:#4497B1;}
	.st244{fill:#BC0030;}
	.st245{fill:#50B63F;}
	.st246{fill:#4893E2;}
	.st247{fill:#E72818;}
	.st248{fill:#51B857;}
	.st249{fill:#E22B2B;}
	.st250{fill:#248E31;}
	.st251{fill:#34A53E;}
	.st252{fill:#E52525;}
	.st253{fill:#00AFCA;}
	.st254{fill:#FEC50C;}
	.st255{fill:#006500;}
	.st256{fill:#FF0515;}
	.st257{fill:#FFFC00;}
	.st258{fill:#6B3606;}
	.st259{fill:#FF0A1C;}
	.st260{fill:#003499;}
	.st261{fill:#F7EB1C;}
	.st262{fill:#218F36;}
	.st263{fill:#43AF50;}
	.st264{fill:#FDFFFF;}
	.st265{fill:#3C5EBF;}
	.st266{fill:url(#SVGID_00000053547555227832972040000002061287064361943956_);}
	.st267{fill:url(#SVGID_00000080169509190343789960000003204203378626209945_);}
</style>
<g>
	<g>
		<rect x="0.85" y="28.2" class="st1" width="0.04" height="13.3"/>
		<rect x="0.85" y="41.49" class="st1" width="0.04" height="15.64"/>
		<g>
			<polygon class="st36" points="62.89,28.17 26.51,0 62.89,28.17 			"/>
			<path class="st36" d="M124.66,0H26.74h-0.23l36.38,28.17h74.1V12.01C136.8,5.35,131.37,0,124.66,0z"/>
			<path class="st36" d="M26.51,0H12.38C5.55,0,0.02,5.54,0.02,12.36v15.8h62.87L26.51,0z"/>
			<polygon class="st37" points="120.16,72.51 133.03,82.48 100.26,57.1 100.26,57.1 			"/>
			<path class="st37" d="M100.26,57.1l32.77,25.37c2.37-2.19,3.87-5.27,3.97-8.72V57.1H100.26z"/>
			<path class="st37" d="M100.26,57.1H0.02v15.41v0.91c0,6.83,5.54,12.36,12.36,12.36h112.28c3.24,0,6.16-1.27,8.36-3.31
				l-12.87-9.96L100.26,57.1z"/>
			<rect x="77.6" y="38.64" class="st1" width="0" height="1.84"/>
			<rect x="71.99" y="34.68" class="st1" width="0" height="1.08"/>
			<rect x="70.61" y="33.39" class="st1" width="0" height="1.51"/>
			<rect x="66.82" y="29.68" class="st1" width="0" height="3.07"/>
			<rect x="69" y="32.02" class="st1" width="0" height="1.75"/>
			<rect x="74.53" y="36.64" class="st1" width="0" height="1.08"/>
			<rect x="73.26" y="35.6" class="st1" width="0" height="1.19"/>
			<rect x="75.93" y="37.51" class="st1" width="0" height="1.52"/>
			<rect x="63.82" y="27.71" class="st1" width="0" height="2.36"/>
			<rect x="79.33" y="39.97" class="st1" width="0" height="1.85"/>
			<path class="st1" d="M76.53,38.73l3.39-1.25c-0.34-0.78-0.77-1.51-1.25-2.2l-3.34,2.52L76.53,38.73z"/>
			<path class="st1" d="M69.69,33.44l0.77-3.32c-0.69-0.12-1.38-0.21-2.1-0.21c-0.06,0-0.11,0.02-0.16,0.02l0.11,2.44L69.69,33.44z"
				/>
			<path class="st1" d="M74.96,37.51l3.67-2.28c-0.44-0.62-0.92-1.2-1.47-1.73l-3.06,3.35L74.96,37.51z"/>
			<path class="st1" d="M73.73,36.56l3.39-3.1c-0.61-0.59-1.28-1.11-2-1.56l-2.33,3.94L73.73,36.56z"/>
			<path class="st1" d="M72.42,35.55l2.64-3.68c-0.64-0.4-1.31-0.76-2.02-1.04l-1.47,4.06L72.42,35.55z"/>
			<path class="st1" d="M71.21,34.61l1.77-3.8c-0.78-0.31-1.61-0.54-2.46-0.68l-0.5,3.56L71.21,34.61z"/>
			<path class="st1" d="M68.03,32.15l0.1-2.22c-0.87,0.02-1.72,0.12-2.54,0.3l0.01,0.04L68.03,32.15z"/>
			<path class="st1" d="M78.32,40.12l2.34-0.38c-0.17-0.76-0.4-1.49-0.7-2.19L76.87,39L78.32,40.12z"/>
			<path class="st1" d="M64.75,29.61c1.16-0.32,2.35-0.55,3.61-0.55c7.06,0,12.81,5.48,13.38,12.4h55.26v-13.3h-74.1L64.75,29.61z"
				/>
			<path class="st1" d="M80.06,41.46h0.83c-0.05-0.56-0.09-1.13-0.21-1.67l-2.08,0.53L80.06,41.46z"/>
			<path class="st1" d="M63.35,41.46c0.03-0.1,0.05-0.19,0.09-0.29L56.6,38c-0.3,0.78-0.53,1.6-0.67,2.45l7.3,1.01H63.35z"/>
			<polygon class="st1" points="74.17,41.46 80.06,41.46 78.6,40.33 			"/>
			<path class="st1" d="M64.97,38.71l-3.99-6.38c-0.61,0.44-1.19,0.93-1.71,1.47l5.54,5.07C64.86,38.81,64.91,38.76,64.97,38.71z"/>
			<path class="st1" d="M64.32,39.42l-5.1-5.57c-0.58,0.61-1.1,1.29-1.55,2.01l6.45,3.82C64.19,39.59,64.24,39.51,64.32,39.42z"/>
			<path class="st1" d="M63.77,40.31l-6.12-4.39c-0.4,0.64-0.75,1.31-1.03,2.02l7.06,2.54C63.7,40.43,63.73,40.37,63.77,40.31z"/>
			<path class="st1" d="M55.92,40.51c-0.05,0.31-0.07,0.63-0.1,0.95h4.22L55.92,40.51z"/>
			<path class="st1" d="M70.46,37.94c0.07,0.03,0.12,0.06,0.17,0.1l1.79-2.49l-0.85-0.66L70.46,37.94z"/>
			<path class="st1" d="M71.29,38.38l-0.04,0.03c0.08,0.07,0.17,0.14,0.25,0.19l2.22-2.03l-0.94-0.73L71.29,38.38z"/>
			<path class="st1" d="M72.08,39.07l-0.05,0.05c0.05,0.05,0.1,0.08,0.13,0.14l2.8-1.74l-0.85-0.66L72.08,39.07z"/>
			<path class="st1" d="M65.84,38.11l-2.59-7.1c-0.79,0.35-1.52,0.78-2.21,1.28l4.52,5.99C65.63,38.22,65.74,38.16,65.84,38.11z"/>
			<path class="st1" d="M72.66,39.81l-0.06,0.05c0.05,0.08,0.1,0.17,0.15,0.26h0.02l3.77-1.38l-1.2-0.93L72.66,39.81z"/>
			<path class="st1" d="M67.47,37.53c0.1-0.02,0.22-0.03,0.32-0.03l0.24-5.35l-2.42-1.88L67.47,37.53z"/>
			<path class="st1" d="M69.46,37.6c0.1,0.02,0.22,0.05,0.32,0.08l1.43-3.07l-1.19-0.92L69.46,37.6z"/>
			<path class="st1" d="M66.77,37.7l-1.22-7.45c-0.78,0.18-1.53,0.42-2.24,0.73l3.19,6.81C66.58,37.77,66.68,37.73,66.77,37.7z"/>
			<path class="st1" d="M68.54,37.48c0.07,0,0.15,0,0.22,0.02l0.94-4.06l-1.39-1.07L68.54,37.48z"/>
			<path class="st1" d="M73.14,40.75l-0.09,0.03c0.02,0.05,0.06,0.12,0.07,0.19l5.2-0.85L76.87,39L73.14,40.75z"/>
			<path class="st1" d="M64.75,29.61l-1.87-1.45H0.02v13.3h54.97C55.45,35.77,59.41,31.11,64.75,29.61z"/>
			
				<rect x="91.04" y="38.3" transform="matrix(0.6122 -0.7907 0.7907 0.6122 -4.2032 91.3544)" class="st1" width="0" height="23.32"/>
			
				<rect x="80.51" y="41.24" transform="matrix(0.6122 -0.7907 0.7907 0.6122 -1.8413 79.869)" class="st1" width="0" height="1.14"/>
			<path class="st1" d="M80.96,42.16c-0.01-0.24-0.05-0.46-0.07-0.7h-0.83L80.96,42.16z"/>
			<path class="st1" d="M81.84,42.54c0,0.1-0.03,0.19-0.03,0.28l18.44,14.28h36.74V41.46H81.74C81.77,41.82,81.84,42.17,81.84,42.54
				z"/>
			<path class="st1" d="M64.61,45.98c-0.04-0.05-0.09-0.1-0.12-0.15l-6.43,4c0.44,0.61,0.91,1.19,1.45,1.72L64.59,46L64.61,45.98z"
				/>
			<path class="st1" d="M63.53,44.18l-7.45,1.23c0.17,0.73,0.38,1.44,0.67,2.11l6.84-3.22C63.55,44.26,63.53,44.22,63.53,44.18z"/>
			<path class="st1" d="M65.38,46.65c-0.09-0.05-0.15-0.11-0.23-0.16l-5.59,5.1c0.6,0.59,1.27,1.11,1.98,1.57l3.83-6.47L65.38,46.65
				z"/>
			<path class="st1" d="M63.89,44.98l-7.11,2.59c0.34,0.78,0.76,1.52,1.25,2.21l6.01-4.54C63.98,45.15,63.93,45.07,63.89,44.98z"/>
			<path class="st1" d="M63.29,43.16l-7.55-0.33c0.02,0.86,0.12,1.7,0.31,2.51l7.27-1.86C63.31,43.37,63.29,43.27,63.29,43.16z"/>
			<path class="st1" d="M81.82,42.82c-0.15,7.3-6.12,13.2-13.46,13.2c-7.44,0-13.48-6.05-13.48-13.48c0-0.37,0.08-0.72,0.11-1.08
				H0.02V57.1h100.24L81.82,42.82z"/>
			<path class="st1" d="M73.32,41.68h-0.04c0.02,0.1,0.04,0.2,0.04,0.31l7.65,0.34c0-0.06-0.01-0.11-0.02-0.16l-0.9-0.7h-5.89
				L73.32,41.68z"/>
			<path class="st1" d="M63.35,41.48c0-0.01,0-0.01,0.01-0.02h-0.12L63.35,41.48z"/>
			<path class="st1" d="M63.26,42.2l-3.21-0.74h-4.22c-0.03,0.36-0.11,0.71-0.11,1.08c0,0.08,0.02,0.15,0.02,0.23l7.5-0.35
				C63.24,42.36,63.24,42.28,63.26,42.2z"/>
			<path class="st1" d="M66.23,47.14l-0.2-0.1l-4.43,6.15c0.65,0.41,1.33,0.77,2.05,1.06l2.56-7.08L66.23,47.14z"/>
			<path class="st1" d="M72.25,45.71l5.16,5.63c0.59-0.61,1.11-1.27,1.57-1.99l-6.56-3.88C72.35,45.55,72.29,45.63,72.25,45.71z"/>
			<path class="st1" d="M73.24,43.64c-0.02,0.1-0.05,0.19-0.08,0.28l6.95,3.22c0.31-0.78,0.53-1.6,0.68-2.45l-7.49-1.04L73.24,43.64
				z"/>
			<path class="st1" d="M72.9,44.61c-0.03,0.09-0.06,0.17-0.1,0.24L79,49.3c0.42-0.66,0.79-1.36,1.08-2.1l-7.11-2.56L72.9,44.61z"/>
			<path class="st1" d="M71.6,46.37l4.04,6.48c0.62-0.44,1.2-0.92,1.73-1.46l-5.65-5.15C71.69,46.28,71.64,46.32,71.6,46.37z"/>
			<path class="st1" d="M70.74,46.95l2.64,7.18c0.79-0.34,1.52-0.77,2.22-1.25L71,46.8C70.91,46.86,70.83,46.91,70.74,46.95z"/>
			<path class="st1" d="M69.14,47.49c-0.1,0.04-0.21,0.06-0.29,0.06l-0.34,7.62c0.86-0.01,1.7-0.1,2.51-0.28l-1.87-7.31L69.14,47.49
				z"/>
			<path class="st1" d="M69.87,47.32v0.02l1.22,7.53c0.77-0.17,1.52-0.4,2.24-0.71l-3.24-6.9C70.02,47.28,69.95,47.31,69.87,47.32z"
				/>
			<path class="st1" d="M67.22,47.46c-0.1-0.02-0.2-0.05-0.31-0.06l-3.2,6.88c0.78,0.31,1.59,0.54,2.43,0.69l1.06-7.44L67.22,47.46z
				"/>
			<path class="st1" d="M73.34,42.73c0.02,0.07,0,0.12,0,0.19l7.45,1.72C80.9,43.95,81,43.26,81,42.54c0-0.05-0.01-0.1-0.02-0.15
				l-7.57,0.34H73.34z"/>
			<path class="st1" d="M68.11,47.57c-0.05,0.02-0.12,0.02-0.17,0l-1.73,7.4c0.7,0.12,1.41,0.22,2.14,0.22
				c0.03,0,0.06-0.01,0.09-0.01l-0.34-7.53V47.57z"/>
			<rect x="73.92" y="36.47" class="st38" width="0" height="0.48"/>
			<rect x="72.6" y="35.45" class="st38" width="0" height="0.47"/>
			<rect x="76.7" y="38.65" class="st38" width="0" height="0.43"/>
			<rect x="75.15" y="37.42" class="st38" width="0" height="0.47"/>
			<rect x="68.17" y="32.09" class="st38" width="0" height="0.34"/>
			<rect x="69.65" y="33.56" class="st38" width="0.41" height="0"/>
			<rect x="71.39" y="34.52" class="st38" width="0" height="0.45"/>
			
				<rect x="65.59" y="30.23" transform="matrix(0.6143 -0.7891 0.7891 0.6143 1.4236 63.428)" class="st38" width="0" height="0.06"/>
			<rect x="78.46" y="40.05" class="st38" width="0" height="0.34"/>
			<path class="st38" d="M65.61,30.28l-0.01-0.04c-0.01,0-0.02,0.01-0.03,0.01L65.61,30.28z"/>
			<path class="st38" d="M75.33,37.8l3.34-2.52c-0.01-0.02-0.03-0.03-0.04-0.05l-3.67,2.28L75.33,37.8z"/>
			<path class="st38" d="M76.87,39l3.09-1.45c-0.01-0.02-0.02-0.04-0.03-0.06l-3.39,1.25L76.87,39z"/>
			<path class="st38" d="M68.31,32.36l-0.11-2.44c-0.02,0-0.04,0.01-0.06,0.01l-0.1,2.22L68.31,32.36z"/>
			<path class="st38" d="M78.6,40.33l2.08-0.53c0-0.02-0.01-0.04-0.02-0.06l-2.34,0.38L78.6,40.33z"/>
			<path class="st38" d="M74.1,36.85l3.06-3.35c-0.02-0.02-0.04-0.03-0.05-0.04l-3.39,3.1L74.1,36.85z"/>
			<path class="st38" d="M70.02,33.69l0.5-3.56c-0.02,0-0.04,0-0.06-0.01l-0.77,3.32L70.02,33.69z"/>
			<path class="st38" d="M72.79,35.83l2.33-3.94c-0.02-0.01-0.04-0.02-0.06-0.03l-2.64,3.68L72.79,35.83z"/>
			<path class="st38" d="M71.56,34.88l1.47-4.06c-0.02-0.01-0.04-0.01-0.06-0.02l-1.77,3.8L71.56,34.88z"/>
			<path class="st38" d="M63.23,41.46l-7.3-1.01c0,0.02,0,0.04-0.01,0.06l4.12,0.95H63.23z"/>
			<path class="st38" d="M63.35,41.46h10.82l4.42-1.13l-0.27-0.21l-5.2,0.85c-0.02-0.06-0.06-0.14-0.07-0.19l0.09-0.03L76.87,39
				l-0.34-0.26l-3.77,1.38h-0.02c-0.06-0.09-0.1-0.18-0.15-0.26l0.06-0.05l2.67-2.01l-0.37-0.29l-2.8,1.74
				c-0.03-0.06-0.08-0.09-0.13-0.14l0.05-0.05l2.03-2.22l-0.38-0.29L71.5,38.6c-0.09-0.05-0.17-0.11-0.25-0.19l0.04-0.03l1.5-2.54
				l-0.37-0.29l-1.79,2.49c-0.05-0.03-0.1-0.06-0.17-0.1l1.11-3.06l-0.35-0.27l-1.43,3.07c-0.1-0.03-0.22-0.06-0.32-0.08l0.55-3.92
				l-0.32-0.25l-0.94,4.06c-0.06-0.02-0.15-0.02-0.22-0.02l-0.23-5.12l-0.27-0.21l-0.24,5.35c-0.1,0-0.22,0.02-0.32,0.03l-1.86-7.26
				l-0.04-0.03c-0.01,0-0.02,0.01-0.02,0.01l1.22,7.45c-0.08,0.03-0.18,0.06-0.27,0.08l-3.19-6.81c-0.02,0.01-0.04,0.02-0.06,0.03
				l2.59,7.1c-0.1,0.05-0.21,0.11-0.29,0.16l-4.52-5.99c-0.02,0.01-0.03,0.03-0.05,0.04l3.99,6.38c-0.05,0.06-0.1,0.1-0.16,0.16
				l-5.54-5.07c-0.02,0.02-0.03,0.04-0.04,0.05l5.1,5.57c-0.08,0.08-0.13,0.17-0.2,0.25l-6.45-3.82c-0.01,0.02-0.02,0.04-0.03,0.06
				l6.12,4.39c-0.03,0.06-0.06,0.12-0.08,0.17l-7.06-2.54c-0.01,0.02-0.01,0.04-0.02,0.06l6.85,3.18
				C63.4,41.27,63.38,41.36,63.35,41.46z"/>
			<path class="st38" d="M73.32,41.99c0-0.1-0.02-0.2-0.04-0.31h0.04l0.85-0.22H63.35c0,0.01,0,0.01-0.01,0.02l-0.12-0.02h-3.19
				l3.21,0.74c-0.02,0.07-0.02,0.15-0.02,0.22l-7.5,0.35c0,0.02,0.01,0.04,0.01,0.06l7.55,0.33c0,0.1,0.02,0.21,0.03,0.32
				l-7.27,1.86c0,0.02,0.01,0.04,0.02,0.06l7.45-1.23c0,0.05,0.02,0.08,0.05,0.11l-6.84,3.22c0.01,0.02,0.02,0.04,0.03,0.06
				l7.11-2.59c0.05,0.09,0.1,0.17,0.15,0.26l-6.01,4.54c0.01,0.02,0.03,0.03,0.04,0.05l6.43-4c0.03,0.06,0.08,0.1,0.12,0.15
				L64.59,46l-5.08,5.55c0.02,0.02,0.04,0.03,0.05,0.04l5.59-5.1c0.08,0.05,0.15,0.11,0.23,0.16l-0.02,0.04l-3.83,6.47
				c0.02,0.01,0.04,0.02,0.06,0.03l4.43-6.15l0.2,0.1l-0.02,0.03l-2.56,7.08c0.02,0.01,0.04,0.01,0.06,0.02l3.2-6.88
				c0.1,0.02,0.21,0.05,0.31,0.06l-0.02,0.06l-1.06,7.44c0.02,0,0.04,0,0.07,0.01l1.73-7.4c0.05,0.02,0.12,0.02,0.17,0v0.08
				l0.34,7.53c0.02,0,0.04-0.01,0.07-0.01l0.34-7.62c0.08,0,0.19-0.02,0.29-0.06l0.02,0.09l1.87,7.31c0.02,0,0.04-0.01,0.06-0.02
				l-1.22-7.53v-0.02c0.08-0.02,0.15-0.05,0.22-0.06l3.24,6.9c0.02-0.01,0.03-0.02,0.05-0.03l-2.64-7.18
				c0.08-0.05,0.17-0.1,0.25-0.15l4.6,6.08c0.02-0.01,0.03-0.02,0.04-0.04l-4.04-6.48c0.04-0.05,0.09-0.09,0.12-0.14l5.65,5.15
				c0.01-0.01,0.02-0.03,0.04-0.04l-5.16-5.63c0.05-0.08,0.1-0.15,0.17-0.23l6.56,3.88c0.01-0.02,0.02-0.03,0.03-0.05l-6.2-4.45
				c0.03-0.07,0.06-0.15,0.1-0.24l0.07,0.03l7.11,2.56c0.01-0.02,0.01-0.04,0.02-0.06l-6.95-3.22c0.03-0.1,0.06-0.18,0.08-0.28
				l0.05,0.02l7.49,1.04c0-0.02,0-0.04,0.01-0.06l-7.45-1.72c0-0.06,0.02-0.11,0-0.19h0.07l7.57-0.34c0-0.02-0.01-0.04-0.01-0.06
				L73.32,41.99z"/>
			<rect x="65.15" y="29.42" class="st38" width="0" height="0.99"/>
			<path class="st38" d="M65.43,29.58l0.17,0.65c0.82-0.18,1.67-0.29,2.54-0.3l0.03-0.67l0.03,0.67c0.06,0,0.11-0.02,0.16-0.02
				c0.72,0,1.41,0.1,2.1,0.21l0.15-0.66l-0.09,0.66c0.85,0.15,1.67,0.37,2.46,0.68l0.28-0.6l-0.22,0.62
				c0.71,0.28,1.38,0.64,2.02,1.04l0.44-0.62l-0.38,0.65c0.72,0.46,1.39,0.97,2,1.56l0.56-0.51l-0.51,0.55
				c0.54,0.53,1.03,1.11,1.47,1.73l0.64-0.4l-0.6,0.45c0.49,0.69,0.91,1.42,1.25,2.2l0.71-0.26l-0.68,0.32
				c0.3,0.7,0.53,1.44,0.7,2.19l0.68-0.11l-0.67,0.17c0.12,0.54,0.16,1.1,0.21,1.67h0.85c-0.56-6.92-6.31-12.4-13.38-12.4
				c-1.26,0-2.45,0.23-3.61,0.55l0.78,0.61L65.43,29.58z"/>
			<path class="st38" d="M55.92,40.51l-0.7-0.16l0.71,0.1c0.14-0.85,0.36-1.67,0.67-2.45l-0.64-0.29l0.65,0.24
				c0.28-0.71,0.63-1.38,1.03-2.02l-0.63-0.46l0.67,0.4c0.45-0.72,0.97-1.39,1.55-2.01l-0.51-0.56l0.56,0.51
				c0.52-0.54,1.1-1.03,1.71-1.47l-0.4-0.64l0.45,0.6c0.69-0.5,1.43-0.93,2.21-1.28l-0.25-0.69l0.31,0.66
				c0.71-0.31,1.46-0.55,2.24-0.73l0-0.03l-0.78-0.61c-5.34,1.49-9.31,6.16-9.77,11.85h0.84C55.85,41.14,55.87,40.82,55.92,40.51z"
				/>
			<rect x="81.07" y="42.11" class="st38" width="0" height="0.28"/>
			
				<rect x="81.53" y="42.23" transform="matrix(0.6122 -0.7907 0.7907 0.6122 -2.0676 80.9838)" class="st38" width="0" height="0.73"/>
			<path class="st38" d="M80.96,42.16l0.22,0.17l0.48,0.02l-0.43,0.02l0.58,0.45c0-0.1,0.03-0.19,0.03-0.28
				c0-0.37-0.08-0.72-0.11-1.08h-0.85C80.91,41.7,80.95,41.92,80.96,42.16z"/>
			<path class="st38" d="M81.19,42.33l-0.22-0.17c0,0.06,0.02,0.11,0.02,0.16L81.19,42.33z"/>
			<path class="st38" d="M80.98,42.39c0,0.05,0.02,0.1,0.02,0.15c0,0.72-0.1,1.41-0.21,2.09l0.71,0.16l-0.72-0.1
				c-0.15,0.85-0.37,1.66-0.68,2.45l0.65,0.3l-0.67-0.24c-0.29,0.74-0.66,1.44-1.08,2.1l0.51,0.36l-0.53-0.32
				c-0.46,0.71-0.98,1.38-1.57,1.99l0.42,0.46l-0.45-0.41c-0.53,0.54-1.11,1.02-1.73,1.46l0.33,0.53l-0.37-0.49
				c-0.69,0.49-1.43,0.91-2.22,1.25l0.21,0.58l-0.26-0.55c-0.71,0.31-1.46,0.54-2.24,0.71l0.12,0.74l-0.18-0.72
				c-0.81,0.18-1.65,0.27-2.51,0.28l-0.03,0.74l-0.03-0.73c-0.03,0-0.06,0.01-0.09,0.01c-0.73,0-1.44-0.1-2.14-0.22l-0.17,0.73
				l0.1-0.74c-0.84-0.15-1.66-0.38-2.43-0.69l-0.32,0.69l0.25-0.71c-0.72-0.29-1.4-0.65-2.05-1.06l-0.45,0.63l0.39-0.66
				c-0.71-0.46-1.38-0.98-1.98-1.57l-0.55,0.5l0.5-0.54c-0.54-0.53-1.01-1.11-1.45-1.72l-0.64,0.4l0.59-0.45
				c-0.48-0.69-0.91-1.43-1.25-2.21l-0.68,0.25l0.65-0.3c-0.29-0.67-0.5-1.38-0.67-2.11l-0.72,0.12l0.7-0.18
				c-0.18-0.81-0.29-1.65-0.31-2.51l-0.71-0.03l0.7-0.03c0-0.08-0.02-0.15-0.02-0.23c0-0.37,0.08-0.72,0.11-1.08h-0.84
				c-0.03,0.36-0.11,0.71-0.11,1.08c0,7.43,6.05,13.48,13.48,13.48c7.34,0,13.3-5.9,13.46-13.2l-0.58-0.45L80.98,42.39z"/>
			
				<rect x="65.55" y="30.21" transform="matrix(0.612 -0.7908 0.7908 0.612 1.5252 63.5679)" class="st38" width="0" height="0.04"/>
			<path class="st38" d="M73.26,30.2l-0.28,0.6c0.02,0.01,0.04,0.01,0.06,0.02L73.26,30.2z"/>
			<path class="st38" d="M75.5,31.25l-0.44,0.62c0.02,0.01,0.04,0.02,0.06,0.03L75.5,31.25z"/>
			<path class="st38" d="M70.61,29.46l-0.15,0.66c0.02,0,0.04,0,0.06,0.01L70.61,29.46z"/>
			<path class="st38" d="M68.17,29.25l-0.03,0.67c0.02,0,0.04-0.01,0.06-0.01L68.17,29.25z"/>
			<path class="st38" d="M77.67,32.95l-0.56,0.51c0.02,0.02,0.04,0.03,0.05,0.04L77.67,32.95z"/>
			<path class="st38" d="M65.6,30.23l-0.17-0.65l0.1,0.63l0.03,0.02C65.58,30.24,65.59,30.23,65.6,30.23z"/>
			<path class="st38" d="M81.35,39.63l-0.68,0.11c0,0.02,0.01,0.04,0.02,0.06L81.35,39.63z"/>
			<path class="st38" d="M79.27,34.83l-0.64,0.4c0.01,0.02,0.03,0.03,0.04,0.05L79.27,34.83z"/>
			<path class="st38" d="M80.64,37.23l-0.71,0.26c0.01,0.02,0.02,0.04,0.03,0.06L80.64,37.23z"/>
			<path class="st38" d="M58.71,33.29l0.51,0.56c0.02-0.02,0.03-0.04,0.04-0.05L58.71,33.29z"/>
			<path class="st38" d="M62.99,30.32l0.25,0.69c0.02-0.01,0.04-0.02,0.06-0.03L62.99,30.32z"/>
			<path class="st38" d="M65.57,30.24l-0.03-0.02l0,0.03C65.55,30.25,65.56,30.24,65.57,30.24z"/>
			<path class="st38" d="M60.58,31.69l0.4,0.64c0.02-0.01,0.03-0.03,0.05-0.04L60.58,31.69z"/>
			<path class="st38" d="M55.96,37.7L56.6,38c0.01-0.02,0.01-0.04,0.02-0.06L55.96,37.7z"/>
			<path class="st38" d="M57.01,35.46l0.63,0.46c0.01-0.02,0.02-0.04,0.03-0.06L57.01,35.46z"/>
			<path class="st38" d="M55.22,40.35l0.7,0.16c0-0.02,0-0.04,0.01-0.06L55.22,40.35z"/>
			<rect x="81.21" y="42.32" class="st38" width="0" height="0.07"/>
			<polygon class="st38" points="81.67,42.36 81.19,42.33 81.24,42.38 			"/>
			<path class="st38" d="M80.76,47.45l-0.65-0.3c-0.01,0.02-0.01,0.04-0.02,0.06L80.76,47.45z"/>
			<path class="st38" d="M79.51,49.67L79,49.3c-0.01,0.02-0.02,0.03-0.03,0.05L79.51,49.67z"/>
			<path class="st38" d="M81.5,44.8l-0.71-0.16c0,0.02,0,0.04-0.01,0.06L81.5,44.8z"/>
			<path class="st38" d="M57.43,50.22l0.64-0.4c-0.01-0.02-0.03-0.03-0.04-0.05L57.43,50.22z"/>
			<path class="st38" d="M80.98,42.33c0,0.02,0.01,0.04,0.01,0.06l0.25-0.01l-0.05-0.04L80.98,42.33z"/>
			<path class="st38" d="M56.1,47.82l0.68-0.25c-0.01-0.02-0.02-0.04-0.03-0.06L56.1,47.82z"/>
			<path class="st38" d="M59.01,52.09l0.55-0.5c-0.02-0.02-0.04-0.03-0.05-0.04L59.01,52.09z"/>
			<path class="st38" d="M55.36,45.52l0.72-0.12c0-0.02-0.01-0.04-0.02-0.06L55.36,45.52z"/>
			<path class="st38" d="M55.04,42.8l0.71,0.03c0-0.02-0.01-0.04-0.01-0.06L55.04,42.8z"/>
			<path class="st38" d="M61.15,53.82l0.45-0.63c-0.02-0.01-0.04-0.02-0.06-0.03L61.15,53.82z"/>
			<path class="st38" d="M77.83,51.79l-0.42-0.46c-0.01,0.01-0.02,0.03-0.04,0.04L77.83,51.79z"/>
			<path class="st38" d="M73.59,54.71l-0.21-0.58c-0.02,0.01-0.03,0.02-0.05,0.03L73.59,54.71z"/>
			<path class="st38" d="M75.97,53.37l-0.33-0.53c-0.02,0.01-0.03,0.02-0.04,0.04L75.97,53.37z"/>
			<path class="st38" d="M71.21,55.6l-0.12-0.74c-0.02,0-0.04,0.01-0.06,0.02L71.21,55.6z"/>
			<path class="st38" d="M66.04,55.7l0.17-0.73c-0.02,0-0.04,0-0.07-0.01L66.04,55.7z"/>
			<path class="st38" d="M68.48,55.91l0.03-0.74c-0.02,0-0.04,0.01-0.07,0.01L68.48,55.91z"/>
			<path class="st38" d="M63.4,54.96l0.32-0.69c-0.02-0.01-0.04-0.01-0.06-0.02L63.4,54.96z"/>
		</g>
		<g class="st15">
			<path class="st0" d="M124.64,0H97.73H26.72l110.29,30.7v-0.29V12.36C137.01,5.54,131.47,0,124.64,0z"/>
			<polygon class="st16" points="137.01,72.51 137.01,30.7 26.72,0 26.49,0 120.14,72.51 			"/>
			<path class="st17" d="M120.14,72.51H0v0.91c0,6.83,5.54,12.36,12.36,12.36h112.28c3.24,0,6.16-1.27,8.36-3.31
				c2.45-2.26,4-5.46,4-9.06v-0.91H120.14z"/>
		</g>
	</g>
	<g>
		<path class="st18" d="M53.25,79.32V56.91h-8v-4.56h21.43v4.56h-7.98v22.41H53.25z"/>
		<path class="st18" d="M70.19,79.32V52.35h20v4.56H75.63v5.98h13.54v4.54H75.63v7.34H90.7v4.54H70.19z"/>
	</g>
</g>
</svg>
