<?xml version="1.0" encoding="utf-8"?>
<!-- Generator: Adobe Illustrator 28.0.0, SVG Export Plug-In . SVG Version: 6.00 Build 0)  -->
<svg version="1.1" id="Слой_1" xmlns="http://www.w3.org/2000/svg" xmlns:xlink="http://www.w3.org/1999/xlink" x="0px" y="0px"
	 viewBox="0 0 137.01 85.78" style="enable-background:new 0 0 137.01 85.78;" xml:space="preserve">
<style type="text/css">
	.st0{opacity:0.5;}
	.st1{fill:#FFFFFF;}
	.st2{opacity:0.5;fill:#FFFFFF;}
	.st3{fill:url(#SVGID_00000117663244887776060170000011360819149246543804_);}
	.st4{fill:#C77618;}
	.st5{fill:url(#SVGID_00000046299400829346495100000002590711022315781532_);}
	.st6{fill:url(#SVGID_00000102523540324515064450000010211570997739060353_);}
	.st7{fill:url(#SVGID_00000150096022487532653080000011359809688752276365_);}
	.st8{opacity:0.5;fill:#00D405;}
	.st9{fill:url(#SVGID_00000051363169057285994060000005149499817192971410_);}
	.st10{fill:url(#SVGID_00000170976540722170844100000011155051476970179245_);}
	.st11{fill:url(#SVGID_00000165919937907760838380000017092190824875313051_);}
	.st12{fill:#2E4593;}
	.st13{fill:#FCF5FF;}
	.st14{fill:#F42525;}
	.st15{opacity:0.61;}
	.st16{opacity:0.26;}
	.st17{opacity:0.45;}
	.st18{fill:#FFFFFF;stroke:#000000;stroke-miterlimit:10;}
	.st19{fill:#28292B;}
	.st20{fill:#FFF915;}
	.st21{fill:#DD3131;}
	.st22{fill:#E53030;}
	.st23{fill:#25BBEF;}
	.st24{fill:#E83434;}
	.st25{fill:#9E1C29;}
	.st26{fill:#000101;}
	.st27{fill:#C4B130;}
	.st28{fill:#408F6E;}
	.st29{fill:#3D5BA9;}
	.st30{fill:#CBCACA;}
	.st31{fill:#C0B531;}
	.st32{fill:#CB414D;}
	.st33{fill:#DE6BA9;}
	.st34{fill:#F6D491;}
	.st35{fill:#4653A4;}
	.st36{fill:#FF9A15;}
	.st37{fill:#37AA41;}
	.st38{fill:#2D3A8E;}
	.st39{fill:#DB2E2E;}
	.st40{fill:#17B3DD;}
	.st41{fill:url(#SVGID_00000168831898810931100180000011624679175952140475_);}
	.st42{fill:url(#SVGID_00000155849546854237211730000011945614222278576018_);}
	.st43{fill:url(#SVGID_00000139276793403150916370000013115094091188025268_);}
	.st44{fill:url(#SVGID_00000093153672730084554410000008549444974395050919_);}
	.st45{fill:url(#SVGID_00000075845313958672633070000000995733827511056531_);}
	.st46{fill:url(#SVGID_00000047059417216071534850000009443137674608638863_);}
	.st47{fill:url(#SVGID_00000137098363827771012310000015502669151458187939_);}
	.st48{fill:url(#SVGID_00000060018265765855457670000013060888038328462979_);}
	.st49{fill:url(#SVGID_00000013155955619971344830000008283146294412804480_);}
	.st50{fill:url(#SVGID_00000182504274322530338490000009840723521329433275_);}
	.st51{fill:url(#SVGID_00000119803709066985443590000000751306355437815477_);}
	.st52{fill:url(#SVGID_00000174603124972795224930000007617872098641251461_);}
	.st53{fill:url(#SVGID_00000106866021613761871950000004293683979885122184_);}
	.st54{fill:url(#SVGID_00000114791627324082330110000012059978328490507948_);}
	.st55{fill:url(#SVGID_00000170237585548966956930000004279532246320771209_);}
	.st56{fill:url(#SVGID_00000078750468152098604830000013224571009877253252_);}
	.st57{fill:url(#SVGID_00000149342853025464136050000012919986800937881757_);}
	.st58{fill:url(#SVGID_00000126287430358918122700000014117676505031604150_);}
	.st59{fill:url(#SVGID_00000047743976241342628460000008177036801158143617_);}
	.st60{fill:url(#SVGID_00000128463805754788259180000000264380662818879650_);}
	.st61{fill:url(#SVGID_00000060738934816740579010000004365551454436430210_);}
	.st62{fill:url(#SVGID_00000170248978982417966860000014515600618791679119_);}
	.st63{fill:url(#SVGID_00000088813322835511559560000015507866452684958878_);}
	.st64{fill:#FFEF00;}
	.st65{fill:url(#SVGID_00000031173964717714454590000010423526578079438513_);}
	.st66{fill:url(#SVGID_00000127751069063075188130000005140152941707262854_);}
	.st67{fill:url(#SVGID_00000162338770674537751670000008005966465738419850_);}
	.st68{fill:url(#SVGID_00000170248702850780747650000004224641936840630942_);}
	.st69{fill:url(#SVGID_00000096047146171097249480000002734953823972972420_);}
	.st70{fill:url(#SVGID_00000125605208061763470130000008525337820566816148_);}
	.st71{fill:url(#SVGID_00000115500782265068809930000014359343588239009675_);}
	.st72{fill:url(#SVGID_00000031207901760943756480000016824530059074591133_);}
	.st73{fill:url(#SVGID_00000141422557832770662260000001781169964121803674_);}
	.st74{fill:url(#SVGID_00000071547611484086182230000011019753766715379341_);}
	.st75{fill:url(#SVGID_00000168808172182095110710000004744821909699188413_);}
	.st76{fill:url(#SVGID_00000132771145368176463250000003492348813106781874_);}
	.st77{fill:url(#SVGID_00000096742606318205692260000001558889298626537394_);}
	.st78{fill:url(#SVGID_00000119804007690335003870000010406239170944684972_);}
	.st79{fill:url(#SVGID_00000025425706260419288610000003592424142029037213_);}
	.st80{fill:url(#SVGID_00000077290621262586189060000013320347601218016657_);}
	.st81{fill:url(#SVGID_00000119833085338224570670000017484376061709610926_);}
	.st82{fill:url(#SVGID_00000025439196151003915250000017505774607513633933_);}
	.st83{fill:url(#SVGID_00000140695808483673631770000005916560681450514096_);}
	.st84{fill:url(#SVGID_00000179645579057034023870000008434761683079300795_);}
	.st85{fill:url(#SVGID_00000093157315017803934880000004549669642159378311_);}
	.st86{fill:url(#SVGID_00000183944207661638966590000018427992825900890243_);}
	.st87{fill:url(#SVGID_00000001633369728050384050000011213414483036270771_);}
	.st88{fill:url(#SVGID_00000023258864378483472780000000841293169936272538_);}
	.st89{fill:url(#SVGID_00000098941817074554764950000010265620525305705892_);}
	.st90{fill:url(#SVGID_00000119083852146470863820000002716840449166485897_);}
	.st91{fill:url(#SVGID_00000122683569769776476240000018193172330084028838_);}
	.st92{fill:url(#SVGID_00000094616061339713157430000017249987888474099600_);}
	.st93{fill:url(#SVGID_00000146459609820406983830000006390052278279844792_);}
	.st94{fill:url(#SVGID_00000132086176299163028410000018425446017514103181_);}
	.st95{fill:url(#SVGID_00000093167128265695492840000014126540479560444084_);}
	.st96{fill:url(#SVGID_00000075883706607204448130000004532449130378233790_);}
	.st97{fill:url(#SVGID_00000005251176604179028320000010437418251246726812_);}
	.st98{fill:url(#SVGID_00000170262825419597383560000016577788566997750149_);}
	.st99{fill:url(#SVGID_00000002358669345262074780000002777815655346504867_);}
	.st100{fill:url(#SVGID_00000156571135806430597880000017391068458710857867_);}
	.st101{fill:url(#SVGID_00000117674791323535694080000004301100298447160489_);}
	.st102{fill:url(#SVGID_00000067221495709842354260000009119622783187153308_);}
	.st103{fill:url(#SVGID_00000070832710367798983030000009923671476924866218_);}
	.st104{fill:url(#SVGID_00000029748986666633261280000011572691631562261437_);}
	.st105{fill:url(#SVGID_00000132089951997930954230000010951246810182005641_);}
	.st106{fill:url(#SVGID_00000090272416923669747790000017075288444930531237_);}
	.st107{fill:url(#SVGID_00000176736963002269322450000001023425592204409733_);}
	.st108{fill:url(#SVGID_00000052805615586253451590000010637032397902985891_);}
	.st109{fill:url(#SVGID_00000180326699609855323260000000890286552504961932_);}
	.st110{fill:url(#SVGID_00000144317939572757874480000013852502403874736286_);}
	.st111{fill:url(#SVGID_00000150104448245666653260000017680857103726603663_);}
	.st112{fill:url(#SVGID_00000027592958999031968080000015587361147370273432_);}
	.st113{fill:url(#SVGID_00000062159392009366746810000017712056384858069377_);}
	.st114{fill:url(#SVGID_00000038393521515563744560000009201280187425657498_);}
	.st115{fill:url(#SVGID_00000005235106410654385040000009118964171882402945_);}
	.st116{fill:url(#SVGID_00000136403792812798651920000002237442612576440741_);}
	.st117{fill:url(#SVGID_00000097462918410883690050000006364920598191856547_);}
	.st118{fill:url(#SVGID_00000053533021176344247980000015172624419841349296_);}
	.st119{fill:url(#SVGID_00000008842703721888065110000012773996951741524890_);}
	.st120{fill:url(#SVGID_00000035514725194174947580000005718232842456949685_);}
	.st121{fill:url(#SVGID_00000099628035028800489630000001524622722907305871_);}
	.st122{fill:url(#SVGID_00000163754637626219086800000007946460725845646476_);}
	.st123{fill:url(#SVGID_00000116199103816464382800000017493026004377363625_);}
	.st124{fill:url(#SVGID_00000104694912506855682590000010459206107344366015_);}
	.st125{fill:url(#SVGID_00000049192891897061485970000000699183112727599039_);}
	.st126{fill:url(#SVGID_00000116937133435386210310000008432141337779036821_);}
	.st127{fill:url(#SVGID_00000089558882086740189860000002439874265364329346_);}
	.st128{fill:url(#SVGID_00000037675765179020460680000014393454565622407353_);}
	.st129{fill:url(#SVGID_00000054223629048105887760000012946518528328362886_);}
	.st130{fill:url(#SVGID_00000127732587937264734760000010305608191708453769_);}
	.st131{fill:url(#SVGID_00000142164454032737203400000017762538364853703862_);}
	.st132{fill:url(#SVGID_00000091694041967666692960000003129533530083740841_);}
	.st133{fill:url(#SVGID_00000008841951113212443410000005651828795263863185_);}
	.st134{fill:url(#SVGID_00000144296493489466106100000001407647049793765029_);}
	.st135{fill:url(#SVGID_00000067924663396849988790000017050080237637886107_);}
	.st136{fill:url(#SVGID_00000006695264854143513470000018124300661830305664_);}
	.st137{fill:url(#SVGID_00000119799883234451119350000014757717658236170939_);}
	.st138{fill:url(#SVGID_00000090987211502113073430000015807200749314424505_);}
	.st139{fill:url(#SVGID_00000062887187366073997010000007982437755224489647_);}
	.st140{fill:url(#SVGID_00000036970143686492829070000000240669412396409498_);}
	.st141{fill:url(#SVGID_00000002359857713038835240000015373173628091123631_);}
	.st142{fill:url(#SVGID_00000123425909704203563740000016079124573766528647_);}
	.st143{fill:url(#SVGID_00000074409869022000688970000002571952220577319347_);}
	.st144{fill:url(#SVGID_00000085247011012429368950000011346402591909798327_);}
	.st145{fill:url(#SVGID_00000053509846344913979220000003550998282938334605_);}
	.st146{fill:url(#SVGID_00000063597822308103243820000009717066070109481372_);}
	.st147{fill:url(#SVGID_00000032617639966589772220000013332182512507363743_);}
	.st148{fill:url(#SVGID_00000120539324633366184590000014032643906761873340_);}
	.st149{fill:url(#SVGID_00000088831415611699804860000002945374788904954518_);}
	.st150{fill:url(#SVGID_00000181065308551147629680000012364033868430682041_);}
	.st151{fill:url(#SVGID_00000134230479625721110140000007123353876767910303_);}
	.st152{fill:url(#SVGID_00000105416063914615294190000002817713514737915069_);}
	.st153{fill:url(#SVGID_00000137126330866921251120000011007951618846935711_);}
	.st154{fill:url(#SVGID_00000182491080829093171140000016218104084054212536_);}
	.st155{fill:url(#SVGID_00000182492887571446303770000005130313769173120923_);}
	.st156{fill:url(#SVGID_00000072967859877446076250000006676087878033814689_);}
	.st157{fill:url(#SVGID_00000181790531867762349530000004506133295713970607_);}
	.st158{fill:url(#SVGID_00000005241698404516170770000016235074828726768801_);}
	.st159{fill:url(#SVGID_00000047760920318098003060000011686343958934212026_);}
	.st160{fill:url(#SVGID_00000136398713360471500320000002885504034615871114_);}
	.st161{fill:url(#SVGID_00000165953143263683345960000013884695944742818198_);}
	.st162{fill:url(#SVGID_00000134233494058826706620000011576427784868556443_);}
	.st163{fill:url(#SVGID_00000051374100139525164910000004079392000659028377_);}
	.st164{fill:url(#SVGID_00000021820920608513018020000000018382144844199606_);}
	.st165{fill:url(#SVGID_00000064356087047775633680000004397939616687505327_);}
	.st166{fill:url(#SVGID_00000070081302501364240890000004113095203415550616_);}
	.st167{fill:url(#SVGID_00000057140435982172675360000010511644856689553063_);}
	.st168{fill:url(#SVGID_00000051374150452252969590000004911464410897340292_);}
	.st169{fill:url(#SVGID_00000052062841794547890340000006735909456131996043_);}
	.st170{fill:url(#SVGID_00000002354056478825253010000008846949134630208392_);}
	.st171{fill:url(#SVGID_00000081634112913059498500000014656509308982140299_);}
	.st172{fill:url(#SVGID_00000000921289529736639880000011482394276769536186_);}
	.st173{fill:url(#SVGID_00000020361630454722415170000005070331340467211693_);}
	.st174{fill:url(#SVGID_00000148632612823595677970000017263831752074444984_);}
	.st175{fill:url(#SVGID_00000034782933868867895700000011712260544753695905_);}
	.st176{fill:url(#SVGID_00000053544430712457646700000008428624045640084650_);}
	.st177{fill:url(#SVGID_00000134930589132650852070000014837597622953976470_);}
	.st178{fill:url(#SVGID_00000059298563058919536170000017497477098831927216_);}
	.st179{fill:url(#SVGID_00000118383040093521765690000005005857020832941449_);}
	.st180{fill:url(#SVGID_00000163752102283420950660000012687404129175754686_);}
	.st181{fill:url(#SVGID_00000016773842158651602910000017910088765866072998_);}
	.st182{fill:url(#SVGID_00000031896401971723289910000012182929326089909682_);}
	.st183{fill:url(#SVGID_00000016773779701775058520000016138511244518256543_);}
	.st184{fill:url(#SVGID_00000150087974334479819110000016599887151325214887_);}
	.st185{fill:url(#SVGID_00000021830639773124819090000003315232979808809105_);}
	.st186{fill:url(#SVGID_00000056395901392035279560000010883359000489410732_);}
	.st187{fill:url(#SVGID_00000106863670554699672170000013899733369784586664_);}
	.st188{fill:url(#SVGID_00000116946046156506244500000011162333691553819820_);}
	.st189{fill:url(#SVGID_00000031918934310814242410000006192027227425009586_);}
	.st190{fill:url(#SVGID_00000181771737092388824010000016727014672136385940_);}
	.st191{fill:url(#SVGID_00000040552947554151628760000017277946195231844765_);}
	.st192{fill:url(#SVGID_00000158707191952532198620000002859519986880637572_);}
	.st193{fill:url(#SVGID_00000060744863809545405640000006674116545563822999_);}
	.st194{fill:url(#SVGID_00000134229608028599294380000001223857472544366725_);}
	.st195{fill:url(#SVGID_00000122722159473063519300000016953607924490398135_);}
	.st196{fill:url(#SVGID_00000022551795511399912090000004940826291574014380_);}
	.st197{fill:url(#SVGID_00000096740289970174424180000006768341551399849613_);}
	.st198{fill:url(#SVGID_00000122002189343084870710000010571199307479191956_);}
	.st199{fill:url(#SVGID_00000045612106389219055490000013689423771582879927_);}
	.st200{fill:url(#SVGID_00000041255830063997756030000006999625949179454373_);}
	.st201{fill:url(#SVGID_00000012460685756624861930000004850434344034237088_);}
	.st202{fill:url(#SVGID_00000107560612149985129220000018265972946391407522_);}
	.st203{fill:url(#SVGID_00000041264985244058774850000017214056348482946188_);}
	.st204{fill:url(#SVGID_00000005256814954177249490000016622440827608132002_);}
	.st205{fill:url(#SVGID_00000052075608381909952090000008611434294970894256_);}
	.st206{fill:url(#SVGID_00000130628304362564923790000000207806983780313003_);}
	.st207{fill:url(#SVGID_00000021078819762160232080000014763324277587121044_);}
	.st208{fill:url(#SVGID_00000142170982953817388270000011492592285625511337_);}
	.st209{fill:url(#SVGID_00000111884602624418101700000002303867961358427530_);}
	.st210{fill:url(#SVGID_00000026125634787833946740000004658627598049137036_);}
	.st211{fill:url(#SVGID_00000089560596829843883750000001617196910492592558_);}
	.st212{fill:url(#SVGID_00000070086807615714606780000000849263215226985368_);}
	.st213{fill:url(#SVGID_00000059992410348948941320000014199362805053964675_);}
	.st214{fill:url(#SVGID_00000020360151435381368470000009975166325411390380_);}
	.st215{fill:url(#SVGID_00000078727898286074436030000013077254939963224729_);}
	.st216{fill:url(#SVGID_00000089540171179936701150000009371965649547938735_);}
	.st217{fill:url(#SVGID_00000063604381241309040530000008262212902934725561_);}
	.st218{fill:url(#SVGID_00000036219693470104855780000005364517124254965943_);}
	.st219{fill:url(#SVGID_00000178927836788153253140000006704710054425615497_);}
	.st220{fill:url(#SVGID_00000147921108900811023490000016560189099345839262_);}
	.st221{fill:url(#SVGID_00000121255270489068820360000014300972467633620652_);}
	.st222{fill:url(#SVGID_00000081613774342382719060000003470461316642243519_);}
	.st223{fill:url(#SVGID_00000128471819377976293500000001448641788046563467_);}
	.st224{fill:url(#SVGID_00000099644154562765101330000008916664615746665400_);}
	.st225{fill:url(#SVGID_00000096059243506440125650000000124611774845896631_);}
	.st226{fill:url(#SVGID_00000013190403982753090530000014749119763043768705_);}
	.st227{fill:url(#SVGID_00000140694003062424170820000001080317526906165182_);}
	.st228{fill:url(#SVGID_00000147937400355713860400000007082302052384937372_);}
	.st229{fill:url(#SVGID_00000064339729659085815570000003802400895355023243_);}
	.st230{fill:url(#SVGID_00000065047369078713006170000000705954146564805029_);}
	.st231{fill:url(#SVGID_00000090254654596085945360000016268187180528986033_);}
	.st232{fill:url(#SVGID_00000089535108256395715250000004651240915890854055_);}
	.st233{fill:url(#SVGID_00000050628009782046805920000004174763149068224669_);}
	.st234{fill:url(#SVGID_00000173163389042177211290000000552195128419852197_);}
	.st235{fill:url(#SVGID_00000049179707614270069210000017709685357329548210_);}
	.st236{fill:url(#SVGID_00000038373979183266268520000002713635352503751301_);}
	.st237{fill:url(#SVGID_00000066504459169237885650000000308534128427794048_);}
	.st238{fill:url(#SVGID_00000152256375024242669500000014482301481339552431_);}
	.st239{fill:#E81944;}
	.st240{fill:#FEFEFE;}
	.st241{fill:#56B34A;}
	.st242{fill:#CEB42B;}
	.st243{fill:#4497B1;}
	.st244{fill:#BC0030;}
	.st245{fill:#50B63F;}
	.st246{fill:#4893E2;}
	.st247{fill:#E72818;}
	.st248{fill:#51B857;}
	.st249{fill:#E22B2B;}
	.st250{fill:#248E31;}
	.st251{fill:#34A53E;}
	.st252{fill:#E52525;}
	.st253{fill:#00AFCA;}
	.st254{fill:#FEC50C;}
	.st255{fill:#006500;}
	.st256{fill:#FF0515;}
	.st257{fill:#FFFC00;}
	.st258{fill:#6B3606;}
	.st259{fill:#FF0A1C;}
	.st260{fill:#003499;}
	.st261{fill:#F7EB1C;}
	.st262{fill:#218F36;}
	.st263{fill:#43AF50;}
	.st264{fill:#FDFFFF;}
	.st265{fill:#3C5EBF;}
	.st266{fill:url(#SVGID_00000176017335087662905830000000586182891703858309_);}
	.st267{fill:url(#SVGID_00000048466082547686308750000015493483676719947965_);}
</style>
<g>
	<g>
		<g>
			<path class="st239" d="M137.01,12.36c0-0.06-0.02-0.12-0.02-0.18v-0.18c-0.01-0.23-0.07-0.44-0.09-0.67
				c-0.05-0.57-0.09-1.14-0.21-1.68c-0.05-0.23-0.14-0.44-0.21-0.66c-0.16-0.55-0.31-1.09-0.54-1.61c-0.1-0.24-0.25-0.45-0.37-0.68
				c-0.24-0.47-0.47-0.93-0.77-1.36c-0.2-0.28-0.44-0.53-0.66-0.8c-0.27-0.33-0.53-0.68-0.83-0.98c-0.34-0.34-0.73-0.62-1.11-0.91
				c-0.24-0.18-0.45-0.4-0.7-0.56c-0.53-0.36-1.11-0.65-1.69-0.92c-0.13-0.06-0.25-0.15-0.38-0.2C127.97,0.35,126.36,0,124.66,0
				h-0.02H97.73h-71h-0.02h-0.21h-0.02H12.38C5.55,0,0.02,5.54,0.02,12.36v15.68l136.99-0.41V12.36z"/>
			<path class="st240" d="M69.65,39.34c0,0-0.82-1.42-2.48-1.47c-1.66-0.05-2.57,1.33-2.57,1.33s1.67,0.58,2.46,2.03
				C67.95,39.82,69.65,39.34,69.65,39.34z"/>
			<path class="st240" d="M137.01,30.41v-2.77L0.02,28.05v0.12v13.3V57.1v1.04l136.99-0.41V30.7V30.41z M66.89,30.76L67.53,29
				l0.53,1.8l1.88,0.05l-1.55,1.06l0.53,1.8l-1.48-1.15l-1.55,1.06l0.62-1.77l-1.49-1.15L66.89,30.76z M59.52,32.52l0.62-1.77
				l0.54,1.81l1.87,0.05l-1.54,1.07l0.53,1.8l-1.49-1.15l-1.55,1.06l0.64-1.76l-1.49-1.15L59.52,32.52z M53.87,47.94l-1.49-1.15
				l-1.55,1.06l0.64-1.76l-1.49-1.15l1.88,0.05l0.62-1.77l0.54,1.81l1.87,0.05l-1.55,1.06L53.87,47.94z M54.55,39.53L53,40.58
				l0.62-1.77l-1.48-1.14l1.88,0.05l0.62-1.77l0.53,1.8l1.88,0.05l-1.55,1.05l0.53,1.8L54.55,39.53z M72.65,56.61
				c-0.97-1.15-2.89-2.28-5.93-2.36c-3.06-0.08-5.02,0.94-6.07,2.03l-0.84-0.94c0.81-0.93,1.86-1.22,2.16-2.41
				c0.29-0.83-0.28-1.5-0.28-1.5s0.83,1.22,2.97,1.27c1.31,0.04,2.15-1.39,2.15-1.39s0.76,1.48,2.07,1.51
				c2.13,0.06,3.04-1.11,3.04-1.11s-0.61,0.64-0.37,1.47c0.23,1.2,1.26,1.56,2.01,2.53L72.65,56.61z M71.97,51.63
				c-2.12,0.98-4.52,0.08-5.17-0.75c-0.69,0.79-3.12,1.56-5.19,0.47c-0.34,0.95-2.99,2.46-5.26,0.71c2.54-0.29,3.93-1.08,5.38-2.9
				c1.36,1.16,3.68,0.21,4.2-0.32l0.15-6.5l-3.24-3.37c0.02-0.71,2.21-2.64,4.36-2.58c2.15,0.06,4.23,2.11,4.2,2.82l-3.43,3.17
				l-0.2,6.51c0.48,0.56,2.75,1.62,4.18,0.54c1.34,1.91,2.68,2.77,5.21,3.21C74.81,54.26,72.25,52.61,71.97,51.63z M75.63,34.08
				l0.53,1.79l-1.48-1.15l-1.56,1.08l0.64-1.78l-1.49-1.14l1.88,0.05l0.62-1.77l0.53,1.79l1.87,0.06L75.63,34.08z M77.48,38.37
				l1.87,0.06l0.64-1.78l0.53,1.8l1.88,0.05l-1.55,1.06l0.53,1.79l-1.48-1.14l-1.55,1.06l0.62-1.77L77.48,38.37z M83.13,48.75
				l-1.49-1.14l-1.53,1.06l0.62-1.77l-1.48-1.15l1.87,0.05l0.64-1.76l0.53,1.8l1.88,0.05l-1.55,1.06L83.13,48.75z"/>
			<path class="st241" d="M0.02,72.51H0v0.91c0,6.83,5.54,12.36,12.36,12.36h0.02h112.26h0.02c3.24,0,6.16-1.27,8.36-3.31
				c1.2-1.11,2.18-2.46,2.86-3.96c0.18-0.4,0.29-0.83,0.43-1.24c0.12-0.36,0.27-0.7,0.36-1.08c0.12-0.53,0.16-1.09,0.21-1.64
				c0.03-0.27,0.1-0.53,0.1-0.8v-0.17c0-0.06,0.02-0.11,0.02-0.17v-0.91V57.73L0.02,58.14V72.51z"/>
			<path class="st242" d="M71.97,49.42c-1.43,1.09-3.69,0.03-4.18-0.54l0.2-6.51l3.43-3.17c0.02-0.71-2.06-2.76-4.2-2.82
				c-2.15-0.06-4.34,1.87-4.36,2.58l3.24,3.37l-0.15,6.5c-0.52,0.53-2.85,1.47-4.2,0.32c-1.45,1.82-2.85,2.61-5.38,2.9
				c2.27,1.76,4.92,0.24,5.26-0.71c2.06,1.09,4.5,0.32,5.19-0.47c0.65,0.83,3.05,1.73,5.17,0.75c0.28,0.98,2.84,2.64,5.2,1.01
				C74.65,52.2,73.31,51.34,71.97,49.42z M64.6,39.2c0,0,0.91-1.38,2.57-1.33c1.66,0.05,2.48,1.47,2.48,1.47s-1.7,0.48-2.59,1.9
				C66.27,39.78,64.6,39.2,64.6,39.2z"/>
			<path class="st242" d="M71.54,53.19c-0.24-0.83,0.37-1.47,0.37-1.47s-0.9,1.16-3.04,1.11c-1.31-0.03-2.07-1.51-2.07-1.51
				l-0.08,2.94c3.05,0.08,4.96,1.21,5.93,2.36l0.89-0.89C72.8,54.75,71.77,54.39,71.54,53.19z"/>
			<path class="st242" d="M64.65,52.7c-2.14-0.04-2.97-1.27-2.97-1.27s0.57,0.67,0.28,1.5c-0.29,1.19-1.35,1.48-2.16,2.41l0.84,0.94
				c1.04-1.09,3.01-2.11,6.07-2.03l0.08-2.94C66.8,51.31,65.95,52.74,64.65,52.7z"/>
			<polygon class="st242" points="82.27,45.83 81.75,44.03 81.11,45.79 79.25,45.75 80.72,46.89 80.1,48.66 81.63,47.61 
				83.13,48.75 82.6,46.94 84.15,45.88 			"/>
			<polygon class="st242" points="79.89,40.23 81.38,41.37 80.84,39.58 82.4,38.52 80.52,38.46 79.99,36.66 79.35,38.44 
				77.48,38.37 78.97,39.53 78.34,41.3 			"/>
			<polygon class="st242" points="74.78,31.16 74.15,32.93 72.28,32.88 73.77,34.02 73.13,35.8 74.69,34.72 76.16,35.87 
				75.63,34.08 77.18,33.01 75.31,32.95 			"/>
			<polygon class="st242" points="65.88,33.63 67.43,32.57 68.91,33.72 68.38,31.91 69.93,30.85 68.05,30.8 67.53,29 66.89,30.76 
				65.01,30.71 66.5,31.86 			"/>
			<polygon class="st242" points="58.5,35.38 60.05,34.32 61.54,35.47 61.01,33.67 62.55,32.6 60.69,32.56 60.15,30.75 59.52,32.52 
				57.65,32.47 59.14,33.62 			"/>
			<polygon class="st242" points="57.05,37.81 55.17,37.76 54.65,35.96 54.02,37.73 52.15,37.68 53.63,38.81 53,40.58 54.55,39.53 
				56.03,40.67 55.51,38.87 			"/>
			<polygon class="st242" points="53.02,45.02 52.48,43.21 51.86,44.98 49.98,44.93 51.47,46.08 50.83,47.85 52.39,46.78 
				53.87,47.94 53.33,46.13 54.89,45.07 			"/>
		</g>
		<g class="st15">
			<path class="st0" d="M124.64,0H97.73H26.72l110.29,30.7v-0.29V12.36C137.01,5.54,131.47,0,124.64,0z"/>
			<polygon class="st16" points="137.01,72.51 137.01,30.7 26.72,0 26.49,0 120.14,72.51 			"/>
			<path class="st17" d="M120.14,72.51H0v0.91c0,6.83,5.54,12.36,12.36,12.36h112.28c3.24,0,6.16-1.27,8.36-3.31
				c2.45-2.26,4-5.46,4-9.06v-0.91H120.14z"/>
		</g>
	</g>
	<g>
		<path class="st18" d="M51.16,79.32V56.91h-8v-4.56h21.43v4.56H56.6v22.41H51.16z"/>
		<path class="st18" d="M80.65,69.4v-4.54h11.74V75.6c-1.14,1.1-2.79,2.08-4.96,2.92c-2.17,0.84-4.36,1.26-6.58,1.26
			c-2.82,0-5.28-0.59-7.38-1.78s-3.67-2.88-4.73-5.08c-1.05-2.2-1.58-4.6-1.58-7.18c0-2.81,0.59-5.3,1.77-7.49
			c1.18-2.18,2.9-3.86,5.17-5.02c1.73-0.89,3.88-1.34,6.46-1.34c3.35,0,5.96,0.7,7.85,2.11s3.09,3.35,3.63,5.82l-5.41,1.01
			c-0.38-1.32-1.09-2.37-2.14-3.14c-1.05-0.77-2.36-1.15-3.93-1.15c-2.38,0-4.27,0.75-5.68,2.26c-1.4,1.51-2.11,3.75-2.11,6.71
			c0,3.2,0.71,5.6,2.13,7.2c1.42,1.6,3.29,2.4,5.59,2.4c1.14,0,2.28-0.22,3.43-0.67c1.15-0.45,2.13-0.99,2.95-1.63V69.4H80.65z"/>
	</g>
</g>
</svg>
